<svg width="10" height="18" viewBox="0 0 10 18" fill="none" xmlns="http://www.w3.org/2000/svg">
<path d="M0.698451 8.46932L8.19845 0.969322C8.26813 0.899641 8.35086 0.844366 8.4419 0.806654C8.53295 0.768942 8.63053 0.749531 8.72908 0.749531C8.82762 0.749531 8.9252 0.768942 9.01625 0.806654C9.10729 0.844366 9.19002 0.899641 9.2597 0.969322C9.32938 1.03901 9.38466 1.12173 9.42237 1.21278C9.46008 1.30382 9.47949 1.4014 9.47949 1.49995C9.47949 1.59849 9.46008 1.69608 9.42237 1.78712C9.38466 1.87817 9.32938 1.96089 9.2597 2.03057L2.28939 8.99995L9.2597 15.9693C9.40043 16.1101 9.47949 16.3009 9.47949 16.4999C9.47949 16.699 9.40043 16.8898 9.2597 17.0306C9.11897 17.1713 8.9281 17.2504 8.72908 17.2504C8.53005 17.2504 8.33918 17.1713 8.19845 17.0306L0.698451 9.53057C0.628718 9.46092 0.573398 9.3782 0.535656 9.28715C0.497912 9.19611 0.478487 9.09851 0.478487 8.99995C0.478487 8.90139 0.497912 8.80379 0.535656 8.71274C0.573398 8.62169 0.628718 8.53898 0.698451 8.46932Z" fill="#F4F1F1"/>
</svg>
