<svg width="10" height="18" viewBox="0 0 10 18" fill="none" xmlns="http://www.w3.org/2000/svg">
<path d="M9.76053 9.53068L2.26053 17.0307C2.19085 17.1004 2.10813 17.1556 2.01708 17.1933C1.92604 17.2311 1.82846 17.2505 1.72991 17.2505C1.63136 17.2505 1.53378 17.2311 1.44274 17.1933C1.35169 17.1556 1.26897 17.1004 1.19928 17.0307C1.1296 16.961 1.07433 16.8783 1.03661 16.7872C0.998902 16.6962 0.979492 16.5986 0.979492 16.5001C0.979492 16.4015 0.998902 16.3039 1.03661 16.2129C1.07433 16.1218 1.1296 16.0391 1.19928 15.9694L8.1696 9.00005L1.19928 2.03068C1.05855 1.88995 0.979492 1.69907 0.979492 1.50005C0.979492 1.30103 1.05855 1.11016 1.19928 0.969426C1.34001 0.828695 1.53089 0.749634 1.72991 0.749634C1.92893 0.749634 2.1198 0.828695 2.26053 0.969426L9.76053 8.46943C9.83027 8.53908 9.88559 8.6218 9.92333 8.71285C9.96107 8.80389 9.9805 8.90149 9.9805 9.00005C9.9805 9.09861 9.96107 9.19621 9.92333 9.28726C9.88559 9.3783 9.83027 9.46102 9.76053 9.53068Z" fill="#F4F1F1"/>
</svg>
