<svg width="20" height="22" viewBox="0 0 20 22" fill="none" xmlns="http://www.w3.org/2000/svg">
<path d="M16.3883 2.38615H15.43V1.34448C15.43 0.719485 15.0467 0.302818 14.4717 0.302818C13.8967 0.302818 13.5133 0.719485 13.5133 1.34448V2.38615H5.84668V1.34448C5.84668 0.719485 5.46335 0.302818 4.88835 0.302818C4.31335 0.302818 3.93001 0.719485 3.93001 1.34448V2.38615H2.97168C1.34251 2.38615 0.0966797 3.74032 0.0966797 5.51115V6.55282H19.2633V5.51115C19.2633 3.74032 18.0175 2.38615 16.3883 2.38615ZM0.0966797 18.0112C0.0966797 19.782 1.34251 21.1362 2.97168 21.1362H16.3883C18.0175 21.1362 19.2633 19.782 19.2633 18.0112V8.63615H0.0966797V18.0112ZM14.4717 10.7195C15.0467 10.7195 15.43 11.1362 15.43 11.7612C15.43 12.3862 15.0467 12.8028 14.4717 12.8028C13.8967 12.8028 13.5133 12.3862 13.5133 11.7612C13.5133 11.1362 13.8967 10.7195 14.4717 10.7195ZM14.4717 14.8862C15.0467 14.8862 15.43 15.3028 15.43 15.9278C15.43 16.5528 15.0467 16.9695 14.4717 16.9695C13.8967 16.9695 13.5133 16.5528 13.5133 15.9278C13.5133 15.3028 13.8967 14.8862 14.4717 14.8862ZM9.68001 10.7195C10.255 10.7195 10.6383 11.1362 10.6383 11.7612C10.6383 12.3862 10.255 12.8028 9.68001 12.8028C9.10501 12.8028 8.72168 12.3862 8.72168 11.7612C8.72168 11.1362 9.10501 10.7195 9.68001 10.7195ZM9.68001 14.8862C10.255 14.8862 10.6383 15.3028 10.6383 15.9278C10.6383 16.5528 10.255 16.9695 9.68001 16.9695C9.10501 16.9695 8.72168 16.5528 8.72168 15.9278C8.72168 15.3028 9.10501 14.8862 9.68001 14.8862ZM4.88835 10.7195C5.46335 10.7195 5.84668 11.1362 5.84668 11.7612C5.84668 12.3862 5.46335 12.8028 4.88835 12.8028C4.31335 12.8028 3.93001 12.3862 3.93001 11.7612C3.93001 11.1362 4.31335 10.7195 4.88835 10.7195ZM4.88835 14.8862C5.46335 14.8862 5.84668 15.3028 5.84668 15.9278C5.84668 16.5528 5.46335 16.9695 4.88835 16.9695C4.31335 16.9695 3.93001 16.5528 3.93001 15.9278C3.93001 15.3028 4.31335 14.8862 4.88835 14.8862Z" fill="white"/>
</svg>
