<svg width="17" height="17" viewBox="0 0 17 17" fill="none" xmlns="http://www.w3.org/2000/svg">
<path d="M16.3737 2.92216C16.3193 2.83523 16.2503 2.76187 16.1708 2.70644C16.0913 2.651 16.003 2.61464 15.9111 2.59952L2.91231 0.314843C2.82047 0.297911 2.72664 0.302185 2.63623 0.327419C2.54582 0.352653 2.46064 0.398347 2.38559 0.46186C2.31055 0.525374 2.24714 0.605448 2.19902 0.697457C2.15089 0.789466 2.11902 0.891587 2.10523 0.997919L1.88398 2.68672C1.88398 2.68672 1.88398 2.70416 1.88398 2.71288L1.70546 4.08775C1.70294 4.09523 1.70294 4.10353 1.70546 4.11101C1.70291 4.12244 1.70291 4.13445 1.70546 4.14589L1.54204 5.38414H1.1297C1.03616 5.38414 0.94355 5.40554 0.857198 5.44709C0.770846 5.48865 0.692459 5.54955 0.626554 5.62628C0.560649 5.70301 0.508528 5.79406 0.473193 5.89418C0.437859 5.9943 0.420009 6.10152 0.420672 6.20965V15.8425C0.421335 16.0596 0.496248 16.2677 0.629073 16.4213C0.761897 16.5748 0.941855 16.6614 1.1297 16.6622H14.2768C14.4649 16.6622 14.6452 16.5758 14.7782 16.4221C14.9111 16.2684 14.9858 16.0599 14.9858 15.8425V13.5782C15.1316 13.4503 15.2282 13.2614 15.2549 13.052L16.0971 6.65728C16.0971 6.65728 16.0971 6.63984 16.0971 6.63403L16.2807 5.23009L16.512 3.54129C16.5263 3.43264 16.5214 3.32177 16.4977 3.21537C16.4739 3.10896 16.4317 3.00922 16.3737 2.92216V2.92216ZM1.92923 4.30575L8.11183 5.39287H1.78089L1.92923 4.30575ZM14.752 15.8425C14.752 15.9836 14.7035 16.1189 14.6173 16.2186C14.531 16.3184 14.4139 16.3744 14.2919 16.3744H1.1297C1.0081 16.3736 0.891717 16.3173 0.805973 16.2176C0.720228 16.1179 0.672097 15.9831 0.672099 15.8425V14.2729H14.752V15.8425ZM14.752 6.43928V12.5521H0.672099V6.20965C0.672099 6.06857 0.720575 5.93328 0.806863 5.83352C0.89315 5.73376 1.01018 5.67772 1.13221 5.67772H14.2768C14.3988 5.67772 14.5159 5.73376 14.6022 5.83352C14.6885 5.93328 14.7369 6.06857 14.7369 6.20965L14.752 6.43928ZM15.0034 13.0084C15.0003 13.0413 14.9936 13.0735 14.9833 13.1044V6.60206L15.8256 6.7503L15.0034 13.0084ZM16.2606 3.48606L16.0569 5.04115L2.14798 2.59952L2.35163 1.04152C2.35961 0.972572 2.3798 0.906267 2.41095 0.84675C2.4421 0.787234 2.48353 0.735786 2.53266 0.695622C2.58117 0.653834 2.63638 0.623583 2.69507 0.606619C2.75376 0.589656 2.81478 0.586316 2.8746 0.596793L15.8734 2.88147C15.9331 2.89161 15.9905 2.91532 16.0423 2.95124C16.0941 2.98716 16.1392 3.03458 16.1751 3.09075C16.2115 3.14668 16.2378 3.21049 16.2525 3.27839C16.2672 3.34629 16.2699 3.41691 16.2606 3.48606V3.48606Z" fill="#F4F1F1"/>
<path d="M2.11021 8.13972H4.73762C4.77096 8.13972 4.80294 8.12441 4.82652 8.09715C4.85009 8.06989 4.86334 8.03293 4.86334 7.99438C4.86334 7.95584 4.85009 7.91887 4.82652 7.89161C4.80294 7.86436 4.77096 7.84905 4.73762 7.84905H2.11021C2.07687 7.84905 2.04489 7.86436 2.02132 7.89161C1.99774 7.91887 1.9845 7.95584 1.9845 7.99438C1.9845 8.03293 1.99774 8.06989 2.02132 8.09715C2.04489 8.12441 2.07687 8.13972 2.11021 8.13972V8.13972ZM6.75658 9.54366H2.11021C2.07687 9.54366 2.04489 9.55897 2.02132 9.58623C1.99774 9.61348 1.9845 9.65045 1.9845 9.689C1.9845 9.72754 1.99774 9.76451 2.02132 9.79176C2.04489 9.81902 2.07687 9.83433 2.11021 9.83433H6.75658C6.78992 9.83433 6.8219 9.81902 6.84548 9.79176C6.86905 9.76451 6.8823 9.72754 6.8823 9.689C6.8823 9.65045 6.86905 9.61348 6.84548 9.58623C6.8219 9.55897 6.78992 9.54366 6.75658 9.54366ZM12.2125 7.41013C11.929 7.4089 11.6535 7.51851 11.4306 7.72115C11.2421 7.55051 11.0158 7.44457 10.7777 7.41543C10.5396 7.38629 10.2992 7.43512 10.0839 7.55635C9.86865 7.67758 9.6872 7.86632 9.56026 8.10104C9.43332 8.33577 9.36601 8.60701 9.36601 8.88384C9.36601 9.16066 9.43332 9.43191 9.56026 9.66663C9.6872 9.90135 9.86865 10.0901 10.0839 10.2113C10.2992 10.3326 10.5396 10.3814 10.7777 10.3522C11.0158 10.3231 11.2421 10.2172 11.4306 10.0465C11.6535 10.2492 11.929 10.3588 12.2125 10.3575C12.5412 10.3407 12.8515 10.1779 13.0789 9.90308C13.3062 9.62828 13.4331 9.26266 13.4331 8.88238C13.4331 8.5021 13.3062 8.13648 13.0789 7.86168C12.8515 7.58688 12.5412 7.4241 12.2125 7.40723V7.41013ZM14.2491 7.6572C14.2158 7.6572 14.1838 7.67252 14.1602 7.69977C14.1366 7.72703 14.1234 7.76399 14.1234 7.80254V10.8081C14.1234 10.8466 14.1366 10.8836 14.1602 10.9108C14.1838 10.9381 14.2158 10.9534 14.2491 10.9534C14.2822 10.9527 14.3139 10.9371 14.3373 10.91C14.3607 10.8829 14.3742 10.8464 14.3748 10.8081V7.80254C14.3748 7.76399 14.3616 7.72703 14.338 7.69977C14.3144 7.67252 14.2824 7.6572 14.2491 7.6572ZM14.2491 11.2732C14.2158 11.2732 14.1838 11.2885 14.1602 11.3157C14.1366 11.343 14.1234 11.3799 14.1234 11.4185V11.5638C14.1234 11.6024 14.1366 11.6393 14.1602 11.6666C14.1838 11.6938 14.2158 11.7092 14.2491 11.7092C14.2822 11.7084 14.3139 11.6929 14.3373 11.6658C14.3607 11.6387 14.3742 11.6021 14.3748 11.5638V11.4185C14.3742 11.3802 14.3607 11.3436 14.3373 11.3165C14.3139 11.2894 14.2822 11.2739 14.2491 11.2732V11.2732Z" fill="#F4F1F1"/>
</svg>
