<svg width="19" height="17" viewBox="0 0 19 17" fill="none" xmlns="http://www.w3.org/2000/svg">
<path d="M9.40206 11.7549C9.72659 11.7549 9.98967 11.3887 9.98967 10.937C9.98967 10.4853 9.72659 10.1191 9.40206 10.1191C9.07753 10.1191 8.81445 10.4853 8.81445 10.937C8.81445 11.3887 9.07753 11.7549 9.40206 11.7549Z" fill="#F4F1F1"/>
<path d="M0.000488281 0.304688V7.17483L0.940663 8.48343H2.93853V4.39406H15.8659V8.48343H17.8638L18.804 7.17483V0.304688H0.000488281Z" fill="#F4F1F1"/>
<path d="M13.5154 12.5728C12.5165 12.5728 11.7526 13.636 11.7526 15.0264H7.05169C7.05169 13.636 6.2878 12.5728 5.28887 12.5728V5.21191H4.11365V16.6622H14.6906V5.21191H13.5154V12.5728Z" fill="#F4F1F1"/>
<path d="M11.7523 6.02979C11.7523 5.70264 11.6936 5.45728 11.6348 5.21191H7.22775C7.16899 5.45728 7.11023 5.70264 7.11023 6.02979C7.11023 7.42018 8.16793 8.48341 9.46067 8.48341C10.7534 8.48341 11.7523 7.42018 11.7523 6.02979Z" fill="#F4F1F1"/>
</svg>
