<svg width="13" height="9" viewBox="0 0 13 9" fill="none" xmlns="http://www.w3.org/2000/svg">
<path d="M1.03427 0.358964L1.01832 0.858709C1.08188 0.860739 1.14509 0.876037 1.20449 0.904494C1.26407 0.933031 1.31903 0.974431 1.36532 1.02724L1.36529 1.02726L1.36957 1.03202L5.63116 5.76957L6.00288 6.1828L6.37461 5.76958L10.6364 1.03206L10.6414 1.02657L10.6462 1.02094C10.6919 0.966995 10.7463 0.924543 10.8055 0.894969C10.8647 0.865426 10.9279 0.849043 10.9916 0.845985C11.0553 0.842927 11.1194 0.85321 11.1803 0.87672C11.2412 0.900276 11.2985 0.936935 11.3482 0.985667C11.3978 1.03439 11.4388 1.0943 11.4677 1.16258C11.4966 1.23078 11.5124 1.30511 11.5136 1.38099C11.5147 1.45692 11.5013 1.53185 11.4745 1.60114C11.4477 1.67045 11.4084 1.73198 11.3601 1.78265L11.355 1.78799L11.35 1.79349L6.35982 7.34095C6.35978 7.341 6.35973 7.34105 6.35969 7.3411C6.31169 7.39437 6.25505 7.43543 6.19396 7.46302C6.13288 7.4906 6.06791 7.50447 6.00289 7.50447C5.93793 7.50447 5.87308 7.49063 5.81194 7.46302C5.7507 7.43536 5.69399 7.39425 5.64612 7.34113C5.6461 7.34111 5.64608 7.34109 5.64606 7.34107C5.64603 7.34103 5.64599 7.34099 5.64596 7.34095L0.656016 1.79347L0.656043 1.79344L0.651944 1.78899C0.581129 1.71216 0.531617 1.61242 0.512882 1.50156C0.494131 1.39061 0.507637 1.27675 0.550638 1.17533C0.593588 1.07404 0.662921 0.991968 0.746514 0.936958C0.829807 0.882145 0.924536 0.855814 1.01885 0.858726L1.03427 0.358964ZM1.03427 0.358964C1.1678 0.363228 1.29907 0.395394 1.4205 0.453562C1.54193 0.51173 1.65108 0.594722 1.7413 0.697638L0.284276 2.12785C0.146464 1.97831 0.0544165 1.78928 0.0198723 1.58487C-0.0146719 1.38046 0.00983764 1.16994 0.0903067 0.980151C0.170776 0.790364 0.303531 0.629919 0.471653 0.519282C0.639776 0.408646 0.83566 0.352833 1.03427 0.358964Z" stroke="#1D763D"/>
</svg>
