<svg width="27" height="39" viewBox="0 0 27 39" fill="none" xmlns="http://www.w3.org/2000/svg">
<path d="M10.1058 24.2291C9.67607 24.2291 9.25601 24.3457 8.89871 24.5642C8.54141 24.7827 8.26294 25.0933 8.09849 25.4567C7.93405 25.8201 7.89102 26.2199 7.97485 26.6057C8.05869 26.9914 8.26561 27.3458 8.56947 27.6239C8.87332 27.902 9.26046 28.0914 9.68192 28.1682C10.1034 28.2449 10.5402 28.2055 10.9372 28.055C11.3342 27.9045 11.6736 27.6496 11.9123 27.3226C12.151 26.9955 12.2785 26.611 12.2785 26.2177C12.2785 25.6903 12.0496 25.1845 11.6421 24.8115C11.2346 24.4386 10.682 24.2291 10.1058 24.2291ZM10.1058 31.1893C9.67607 31.1893 9.25601 31.306 8.89871 31.5245C8.54141 31.743 8.26294 32.0536 8.09849 32.417C7.93405 32.7803 7.89102 33.1802 7.97485 33.566C8.05869 33.9517 8.26561 34.3061 8.56947 34.5842C8.87332 34.8623 9.26046 35.0517 9.68192 35.1284C10.1034 35.2052 10.5402 35.1658 10.9372 35.0153C11.3342 34.8647 11.6736 34.6099 11.9123 34.2828C12.151 33.9558 12.2785 33.5713 12.2785 33.178C12.2785 32.6506 12.0496 32.1448 11.6421 31.7718C11.2346 31.3989 10.682 31.1893 10.1058 31.1893ZM17.7102 21.2461C18.1399 21.2461 18.5599 21.1295 18.9172 20.911C19.2745 20.6924 19.553 20.3819 19.7175 20.0185C19.8819 19.6551 19.9249 19.2552 19.8411 18.8695C19.7573 18.4837 19.5503 18.1294 19.2465 17.8513C18.9426 17.5731 18.5555 17.3837 18.134 17.307C17.7126 17.2303 17.2757 17.2697 16.8787 17.4202C16.4817 17.5707 16.1424 17.8256 15.9036 18.1526C15.6649 18.4796 15.5375 18.8641 15.5375 19.2574C15.5375 19.7849 15.7664 20.2907 16.1738 20.6636C16.5813 21.0366 17.1339 21.2461 17.7102 21.2461ZM10.1058 17.2688C9.67607 17.2688 9.25601 17.3854 8.89871 17.6039C8.54141 17.8225 8.26294 18.133 8.09849 18.4964C7.93405 18.8598 7.89102 19.2597 7.97485 19.6454C8.05869 20.0312 8.26561 20.3855 8.56947 20.6636C8.87332 20.9418 9.26046 21.1312 9.68192 21.2079C10.1034 21.2846 10.5402 21.2452 10.9372 21.0947C11.3342 20.9442 11.6736 20.6893 11.9123 20.3623C12.151 20.0353 12.2785 19.6508 12.2785 19.2574C12.2785 18.73 12.0496 18.2242 11.6421 17.8513C11.2346 17.4783 10.682 17.2688 10.1058 17.2688ZM17.7102 31.1893C17.2804 31.1893 16.8604 31.306 16.5031 31.5245C16.1458 31.743 15.8673 32.0536 15.7029 32.417C15.5384 32.7803 15.4954 33.1802 15.5792 33.566C15.6631 33.9517 15.87 34.3061 16.1738 34.5842C16.4777 34.8623 16.8648 35.0517 17.2863 35.1284C17.7077 35.2052 18.1446 35.1658 18.5416 35.0153C18.9386 34.8647 19.2779 34.6099 19.5167 34.2828C19.7554 33.9558 19.8828 33.5713 19.8828 33.178C19.8828 32.6506 19.6539 32.1448 19.2465 31.7718C18.839 31.3989 18.2864 31.1893 17.7102 31.1893ZM17.7102 24.2291C17.2804 24.2291 16.8604 24.3457 16.5031 24.5642C16.1458 24.7827 15.8673 25.0933 15.7029 25.4567C15.5384 25.8201 15.4954 26.2199 15.5792 26.6057C15.6631 26.9914 15.87 27.3458 16.1738 27.6239C16.4777 27.902 16.8648 28.0914 17.2863 28.1682C17.7077 28.2449 18.1446 28.2055 18.5416 28.055C18.9386 27.9045 19.2779 27.6496 19.5167 27.3226C19.7554 26.9955 19.8828 26.611 19.8828 26.2177C19.8828 25.6903 19.6539 25.1845 19.2465 24.8115C18.839 24.4386 18.2864 24.2291 17.7102 24.2291Z" fill="#57565D" fill-opacity="0.5"/>
<path d="M10.1058 10.5926C9.67607 10.5926 9.25601 10.7092 8.89871 10.9277C8.54141 11.1463 8.26294 11.4568 8.09849 11.8202C7.93405 12.1836 7.89102 12.5835 7.97485 12.9692C8.05869 13.355 8.26561 13.7093 8.56947 13.9874C8.87332 14.2656 9.26046 14.455 9.68192 14.5317C10.1034 14.6084 10.5402 14.569 10.9372 14.4185C11.3342 14.268 11.6736 14.0131 11.9123 13.6861C12.151 13.359 12.2785 12.9746 12.2785 12.5812C12.2785 12.0538 12.0496 11.548 11.6421 11.1751C11.2346 10.8021 10.682 10.5926 10.1058 10.5926ZM10.1058 17.5529C9.67607 17.5529 9.25601 17.6695 8.89871 17.888C8.54141 18.1065 8.26294 18.4171 8.09849 18.7805C7.93405 19.1439 7.89102 19.5437 7.97485 19.9295C8.05869 20.3152 8.26561 20.6696 8.56947 20.9477C8.87332 21.2258 9.26046 21.4152 9.68192 21.492C10.1034 21.5687 10.5402 21.5293 10.9372 21.3788C11.3342 21.2283 11.6736 20.9734 11.9123 20.6464C12.151 20.3193 12.2785 19.9348 12.2785 19.5415C12.2785 19.0141 12.0496 18.5083 11.6421 18.1353C11.2346 17.7624 10.682 17.5529 10.1058 17.5529ZM17.7102 7.60962C18.1399 7.60962 18.5599 7.49299 18.9172 7.27448C19.2745 7.05596 19.553 6.74538 19.7175 6.382C19.8819 6.01862 19.9249 5.61877 19.8411 5.23301C19.7573 4.84725 19.5503 4.4929 19.2465 4.21479C18.9426 3.93667 18.5555 3.74727 18.134 3.67054C17.7126 3.5938 17.2757 3.63319 16.8787 3.7837C16.4817 3.93422 16.1424 4.18911 15.9036 4.51614C15.6649 4.84317 15.5375 5.22766 15.5375 5.62097C15.5375 6.1484 15.7664 6.65422 16.1738 7.02716C16.5813 7.40011 17.1339 7.60962 17.7102 7.60962ZM10.1058 3.63233C9.67607 3.63233 9.25601 3.74896 8.89871 3.96747C8.54141 4.18599 8.26294 4.49657 8.09849 4.85995C7.93405 5.22333 7.89102 5.62318 7.97485 6.00894C8.05869 6.3947 8.26561 6.74904 8.56947 7.02716C8.87332 7.30528 9.26046 7.49468 9.68192 7.57141C10.1034 7.64815 10.5402 7.60876 10.9372 7.45825C11.3342 7.30773 11.6736 7.05284 11.9123 6.72581C12.151 6.39878 12.2785 6.01429 12.2785 5.62097C12.2785 5.09355 12.0496 4.58773 11.6421 4.21479C11.2346 3.84184 10.682 3.63233 10.1058 3.63233ZM17.7102 17.5529C17.2804 17.5529 16.8604 17.6695 16.5031 17.888C16.1458 18.1065 15.8673 18.4171 15.7029 18.7805C15.5384 19.1439 15.4954 19.5437 15.5792 19.9295C15.6631 20.3152 15.87 20.6696 16.1738 20.9477C16.4777 21.2258 16.8648 21.4152 17.2863 21.492C17.7077 21.5687 18.1446 21.5293 18.5416 21.3788C18.9386 21.2283 19.2779 20.9734 19.5167 20.6464C19.7554 20.3193 19.8828 19.9348 19.8828 19.5415C19.8828 19.0141 19.6539 18.5083 19.2465 18.1353C18.839 17.7624 18.2864 17.5529 17.7102 17.5529ZM17.7102 10.5926C17.2804 10.5926 16.8604 10.7092 16.5031 10.9277C16.1458 11.1463 15.8673 11.4568 15.7029 11.8202C15.5384 12.1836 15.4954 12.5835 15.5792 12.9692C15.6631 13.355 15.87 13.7093 16.1738 13.9874C16.4777 14.2656 16.8648 14.455 17.2863 14.5317C17.7077 14.6084 18.1446 14.569 18.5416 14.4185C18.9386 14.268 19.2779 14.0131 19.5167 13.6861C19.7554 13.359 19.8828 12.9746 19.8828 12.5812C19.8828 12.0538 19.6539 11.548 19.2465 11.1751C18.839 10.8021 18.2864 10.5926 17.7102 10.5926Z" fill="#57565D" fill-opacity="0.5"/>
</svg>
