<svg width="16" height="16" viewBox="0 0 16 16" fill="none" xmlns="http://www.w3.org/2000/svg">
<path d="M8 11C9.65685 11 11 9.65685 11 8C11 6.34315 9.65685 5 8 5C6.34315 5 5 6.34315 5 8C5 9.65685 6.34315 11 8 11Z" stroke="#F4F1F1" stroke-width="2" stroke-linecap="round" stroke-linejoin="round"/>
<path d="M10.8 7.99956V8.69956C10.8 9.25652 11.0213 9.79066 11.4151 10.1845C11.8089 10.5783 12.343 10.7996 12.9 10.7996C13.457 10.7996 13.9911 10.5783 14.3849 10.1845C14.7788 9.79066 15 9.25652 15 8.69956V7.99956C14.9999 6.41968 14.4654 4.8863 13.4833 3.64874C12.5012 2.41118 11.1294 1.54222 9.59085 1.18317C8.05231 0.824124 6.43756 0.996095 5.00915 1.67112C3.58074 2.34615 2.42268 3.48453 1.72329 4.90117C1.02389 6.31781 0.824283 7.92938 1.15692 9.47384C1.48956 11.0183 2.33489 12.4048 3.55545 13.4079C4.776 14.4111 6.30001 14.9718 7.87965 14.999C9.4593 15.0261 11.0017 14.5181 12.256 13.5576" stroke="#F4F1F1" stroke-width="2" stroke-linecap="round" stroke-linejoin="round"/>
</svg>
