<svg width="22" height="22" viewBox="0 0 22 22" fill="none" xmlns="http://www.w3.org/2000/svg">
<g clip-path="url(#clip0_578_11612)">
<path fill-rule="evenodd" clip-rule="evenodd" d="M11.3145 0.358887C8.51728 0.358887 5.83463 1.47008 3.8567 3.44801C1.87877 5.42594 0.767578 8.10859 0.767578 10.9058C0.767578 13.703 1.87877 16.3857 3.8567 18.3636C5.83463 20.3415 8.51728 21.4527 11.3145 21.4527C14.1117 21.4527 16.7944 20.3415 18.7723 18.3636C20.7502 16.3857 21.8614 13.703 21.8614 10.9058C21.8614 8.10859 20.7502 5.42594 18.7723 3.44801C16.7944 1.47008 14.1117 0.358887 11.3145 0.358887ZM6.35988 7.66709H16.2772L11.3202 11.5995L6.35988 7.66709ZM5.64837 8.13927L11.0719 12.4367C11.1435 12.4933 11.2321 12.5241 11.3234 12.5241C11.4147 12.5241 11.5033 12.4933 11.5749 12.4367L16.9822 8.14251V14.1445H5.64837V8.13927Z" fill="#F4F1F1"/>
</g>
<defs>
<clipPath id="clip0_578_11612">
<rect width="21.0938" height="21.0938" fill="white" transform="translate(0.767578 0.358887)"/>
</clipPath>
</defs>
</svg>
