<svg width="25" height="26" viewBox="0 0 25 26" fill="none" xmlns="http://www.w3.org/2000/svg">
<g clip-path="url(#clip0_2_4952)">
<path d="M24.7191 12.663C24.7191 5.83703 19.1855 0.303467 12.3596 0.303467C5.53356 0.303467 0 5.83703 0 12.663C0 18.832 4.51971 23.9452 10.4284 24.8724V16.2357H7.2902V12.663H10.4284V9.94005C10.4284 6.84244 12.2736 5.13142 15.0967 5.13142C16.449 5.13142 17.8634 5.37281 17.8634 5.37281V8.41442H16.3049C14.7695 8.41442 14.2907 9.36714 14.2907 10.3446V12.663H17.7186L17.1706 16.2357H14.2907V24.8724C20.1994 23.9452 24.7191 18.832 24.7191 12.663Z" fill="#F4F1F1"/>
<path d="M17.1704 16.2356L17.7184 12.6629H14.2906V10.3445C14.2906 9.36707 14.7694 8.41435 16.3047 8.41435H17.8632V5.37275C17.8632 5.37275 16.4488 5.13135 15.0966 5.13135C12.2734 5.13135 10.4282 6.84237 10.4282 9.93999V12.6629H7.29004V16.2356H10.4282V24.8723C11.7079 25.0726 13.0109 25.0726 14.2906 24.8723V16.2356H17.1704Z" fill="#1D763D"/>
</g>
<defs>
<clipPath id="clip0_2_4952">
<rect width="24.7191" height="24.7191" fill="white" transform="translate(0 0.303467)"/>
</clipPath>
</defs>
</svg>
