<svg width="13" height="6" viewBox="0 0 13 6" fill="none" xmlns="http://www.w3.org/2000/svg">
<path d="M1.35639 1.05291L1.35642 1.05288L1.35191 1.04886C1.29657 0.999425 1.27008 0.946801 1.26101 0.902621C1.25217 0.859539 1.25729 0.813273 1.28169 0.765896C1.30695 0.716848 1.35528 0.663106 1.43245 0.621299C1.50988 0.579349 1.60632 0.555323 1.70842 0.557918L1.72112 0.0580792L1.70798 0.557907C1.776 0.559695 1.84118 0.573202 1.89935 0.596142C1.95762 0.619124 2.00512 0.650039 2.0409 0.683642L2.04087 0.683672L2.04561 0.688012L6.0362 4.34028L6.37376 4.64923L6.71133 4.34029L10.7021 0.688043L10.7076 0.683018L10.713 0.677832C10.7479 0.643926 10.7944 0.612543 10.852 0.588889C10.9095 0.565231 10.9744 0.550819 11.0425 0.548127C11.1106 0.545435 11.1777 0.554644 11.2391 0.574147C11.3005 0.593671 11.3523 0.62225 11.3929 0.655023L11.7071 0.26614L11.3929 0.655026C11.4332 0.687633 11.4606 0.722835 11.4776 0.75598C11.4944 0.788674 11.5017 0.820228 11.5022 0.849438C11.5028 0.878679 11.4967 0.9099 11.4816 0.94216L11.9341 1.1547L11.4816 0.942164C11.4662 0.974841 11.4408 1.01001 11.4024 1.04315L11.3968 1.04796L11.3914 1.05293L6.71855 5.32956C6.7185 5.32961 6.71845 5.32966 6.7184 5.32971C6.68088 5.36397 6.63143 5.39498 6.57115 5.41739C6.51079 5.43983 6.4434 5.45216 6.37377 5.45216C6.3042 5.45216 6.23692 5.43985 6.1765 5.41739C6.11607 5.39492 6.06656 5.36387 6.02917 5.32972C6.02911 5.32967 6.02905 5.32961 6.02899 5.32956L1.35639 1.05291Z" fill="#1D191D" stroke="#1D191D"/>
</svg>
