<svg width="16" height="15" viewBox="0 0 16 15" fill="none" xmlns="http://www.w3.org/2000/svg">
<g clip-path="url(#clip0_3_28938)">
<path d="M12.819 0.943078V13.3722C12.819 13.7399 12.5052 14.0381 12.1182 14.0381H2.94913C2.56208 14.0381 2.24829 13.74 2.24829 13.3722V0.943078C2.24829 0.575354 2.56206 0.277222 2.94913 0.277222H12.1182C12.5052 0.277222 12.819 0.575326 12.819 0.943078Z" fill="white"/>
<path d="M7.53625 3.44355C7.53625 4.04281 7.23488 4.57328 6.77 4.90843C6.44761 5.14369 6.04115 5.2813 5.60196 5.2813C5.16277 5.2813 4.75631 5.14369 4.43157 4.90843C3.96669 4.57328 3.66534 4.04283 3.66534 3.44355C3.66534 2.43147 4.53204 1.60803 5.60196 1.60803C6.66956 1.60803 7.53625 2.43147 7.53625 3.44355Z" fill="#47AACB"/>
<path d="M7.53598 3.44441C7.53598 4.04366 7.2346 4.57414 6.76972 4.90929C6.44734 5.14457 6.04087 5.28216 5.60168 5.28216C5.1625 5.28216 4.75603 5.14454 4.43132 4.90929C4.23977 4.77167 4.07391 4.59634 3.94775 4.39881C4.23977 4.56969 4.58549 4.66512 4.95226 4.66512C5.39145 4.66512 5.79791 4.5275 6.1203 4.29225C6.58518 3.9571 6.88652 3.42665 6.88652 2.8274C6.88652 2.48114 6.78373 2.15488 6.60851 1.87744C7.16453 2.20149 7.53598 2.783 7.53598 3.44441Z" fill="#90CDDF"/>
<path d="M6.13571 3.10252C6.13571 3.38245 5.8954 3.61077 5.6008 3.61077C5.30407 3.61077 5.06588 3.38245 5.06588 3.10252C5.06588 2.8206 5.3041 2.5943 5.6008 2.5943C5.89543 2.5943 6.13571 2.82063 6.13571 3.10252ZM6.77001 4.9084C6.44762 5.14365 6.04116 5.28127 5.60197 5.28127C5.16278 5.28127 4.75632 5.14365 4.43158 4.9084C4.64184 4.48227 5.08568 4.19152 5.60197 4.19152C6.11591 4.19149 6.55978 4.48224 6.77001 4.9084Z" fill="#DBDBDB"/>
<path d="M12.1182 0.0552979H2.94909C2.43374 0.0552979 2.01465 0.453582 2.01465 0.943098V13.3722C2.01465 13.8618 2.43374 14.26 2.94909 14.26H12.1182C12.6336 14.26 13.0526 13.8618 13.0526 13.3722V0.943098C13.0527 0.453554 12.6336 0.0552979 12.1182 0.0552979ZM12.5854 13.3722C12.5854 13.6171 12.3758 13.8161 12.1182 13.8161H2.94909C2.69153 13.8161 2.48188 13.6171 2.48188 13.3722V0.943098C2.48188 0.698284 2.69153 0.499212 2.94909 0.499212H12.1182C12.3758 0.499212 12.5854 0.698284 12.5854 0.943098V13.3722H12.5854Z" fill="#3A3D3F"/>
<path d="M5.60204 5.50321C6.79983 5.50321 7.76976 4.58418 7.76976 3.44357C7.76976 2.30911 6.79721 1.38611 5.60204 1.38611C4.40549 1.38611 3.43182 2.30914 3.43182 3.44357C3.43182 4.59564 4.4134 5.50321 5.60204 5.50321ZM4.7468 4.83758C4.94506 4.57299 5.25708 4.4134 5.60204 4.4134C5.94588 4.4134 6.25724 4.57319 6.45523 4.83802C6.19938 4.98095 5.90939 5.05929 5.60204 5.05929C5.29531 5.05929 5.00462 4.98081 4.7468 4.83758ZM5.60204 1.82999C6.53966 1.82999 7.30256 2.55381 7.30256 3.44357C7.30256 3.86928 7.12937 4.2655 6.82288 4.56531C6.53769 4.19358 6.0935 3.96952 5.60204 3.96952C5.10918 3.96952 4.66408 4.19367 4.37865 4.5655C4.07242 4.26605 3.89903 3.86959 3.89903 3.44357C3.89903 2.55381 4.66305 1.82999 5.60204 1.82999Z" fill="#3A3D3F"/>
<path d="M5.60093 3.83275C6.02458 3.83275 6.36927 3.50515 6.36927 3.10253C6.36927 2.69991 6.02455 2.37242 5.60093 2.37242C5.17704 2.37242 4.83235 2.69994 4.83235 3.10253C4.83235 3.50512 5.17704 3.83275 5.60093 3.83275ZM5.60093 2.81631C5.76699 2.81631 5.90207 2.94473 5.90207 3.10253C5.90207 3.26042 5.76702 3.38886 5.60093 3.38886C5.43483 3.38886 5.29955 3.26045 5.29955 3.10253C5.29955 2.94201 5.43186 2.81631 5.60093 2.81631ZM11.4019 2.16345H8.98277C8.85364 2.16345 8.74916 2.26282 8.74916 2.3854C8.74916 2.50797 8.85364 2.60734 8.98277 2.60734H11.4019C11.531 2.60734 11.6355 2.50797 11.6355 2.3854C11.6355 2.26285 11.531 2.16345 11.4019 2.16345ZM11.4019 3.2227H8.98277C8.85364 3.2227 8.74916 3.32207 8.74916 3.44464C8.74916 3.56722 8.85364 3.66659 8.98277 3.66659H11.4019C11.531 3.66659 11.6355 3.56722 11.6355 3.44464C11.6355 3.3221 11.531 3.2227 11.4019 3.2227ZM11.4019 4.28184H8.98277C8.85364 4.28184 8.74916 4.3812 8.74916 4.50378C8.74916 4.62635 8.85364 4.72572 8.98277 4.72572H11.4019C11.531 4.72572 11.6355 4.62635 11.6355 4.50378C11.6355 4.3812 11.531 4.28184 11.4019 4.28184ZM3.66543 7.35023H4.08931C4.21844 7.35023 4.32291 7.25086 4.32291 7.12829C4.32291 7.00571 4.21844 6.90634 4.08931 6.90634H3.66543C3.53629 6.90634 3.43182 7.00571 3.43182 7.12829C3.43182 7.25083 3.53629 7.35023 3.66543 7.35023ZM4.83235 7.12829C4.83235 7.25086 4.93682 7.35023 5.06595 7.35023H8.38552C8.51465 7.35023 8.61912 7.25086 8.61912 7.12829C8.61912 7.00571 8.51465 6.90634 8.38552 6.90634H5.06595C4.93682 6.90632 4.83235 7.00571 4.83235 7.12829ZM3.66543 8.81436H4.08931C4.21844 8.81436 4.32291 8.71499 4.32291 8.59242C4.32291 8.46984 4.21844 8.37047 4.08931 8.37047H3.66543C3.53629 8.37047 3.43182 8.46984 3.43182 8.59242C3.43182 8.71496 3.53629 8.81436 3.66543 8.81436ZM8.38552 8.37045H5.06595C4.93682 8.37045 4.83235 8.46981 4.83235 8.59239C4.83235 8.71496 4.93682 8.81433 5.06595 8.81433H8.38552C8.51465 8.81433 8.61912 8.71496 8.61912 8.59239C8.61912 8.46984 8.51462 8.37045 8.38552 8.37045ZM3.66543 10.2785H4.08931C4.21844 10.2785 4.32291 10.1791 4.32291 10.0565C4.32291 9.93397 4.21844 9.8346 4.08931 9.8346H3.66543C3.53629 9.8346 3.43182 9.93397 3.43182 10.0565C3.43182 10.1791 3.53629 10.2785 3.66543 10.2785ZM8.38552 9.83458H5.06595C4.93682 9.83458 4.83235 9.93394 4.83235 10.0565C4.83235 10.1791 4.93682 10.2785 5.06595 10.2785H8.38552C8.51465 10.2785 8.61912 10.1791 8.61912 10.0565C8.61912 9.93394 8.51462 9.83458 8.38552 9.83458ZM11.4019 11.3142H3.66543C3.53629 11.3142 3.43182 11.4136 3.43182 11.5361C3.43182 11.6587 3.53629 11.7581 3.66543 11.7581H11.4019C11.531 11.7581 11.6355 11.6587 11.6355 11.5361C11.6355 11.4136 11.531 11.3142 11.4019 11.3142ZM8.64466 12.4853H3.66543C3.53629 12.4853 3.43182 12.5847 3.43182 12.7072C3.43182 12.8298 3.53629 12.9292 3.66543 12.9292H8.64466C8.7738 12.9292 8.87827 12.8298 8.87827 12.7072C8.87827 12.5847 8.7738 12.4853 8.64466 12.4853Z" fill="#3A3D3F"/>
</g>
<defs>
<clipPath id="clip0_3_28938">
<rect width="15.0673" height="14.3153" fill="white"/>
</clipPath>
</defs>
</svg>
