<svg width="18" height="18" viewBox="0 0 18 18" fill="none" xmlns="http://www.w3.org/2000/svg">
<path d="M8.86041 4.25391C7.70266 4.25391 6.59233 4.72209 5.77368 5.55546C4.95503 6.38883 4.49512 7.51913 4.49512 8.69769C4.49512 9.87625 4.95503 11.0065 5.77368 11.8399C6.59233 12.6733 7.70266 13.1415 8.86041 13.1415C10.0182 13.1415 11.1285 12.6733 11.9471 11.8399C12.7658 11.0065 13.2257 9.87625 13.2257 8.69769C13.2257 7.51913 12.7658 6.38883 11.9471 5.55546C11.1285 4.72209 10.0182 4.25391 8.86041 4.25391ZM8.86041 11.5836C8.10828 11.5836 7.38695 11.2795 6.85511 10.7381C6.32327 10.1967 6.02448 9.46239 6.02448 8.69673C6.02448 7.93107 6.32327 7.19677 6.85511 6.65537C7.38695 6.11396 8.10828 5.80981 8.86041 5.80981C9.61255 5.80981 10.3339 6.11396 10.8657 6.65537C11.3976 7.19677 11.6963 7.93107 11.6963 8.69673C11.6963 9.46239 11.3976 10.1967 10.8657 10.7381C10.3339 11.2795 9.61255 11.5836 8.86041 11.5836Z" fill="#F4F1F1"/>
<path d="M13.3985 5.12666C13.9606 5.12666 14.4162 4.66283 14.4162 4.09067C14.4162 3.51851 13.9606 3.05469 13.3985 3.05469C12.8365 3.05469 12.3809 3.51851 12.3809 4.09067C12.3809 4.66283 12.8365 5.12666 13.3985 5.12666Z" fill="#F4F1F1"/>
<path d="M16.9169 3.03768C16.6983 2.46316 16.3643 1.94142 15.9363 1.50586C15.5083 1.0703 14.9956 0.730518 14.4312 0.508261C13.7707 0.255854 13.0729 0.119373 12.3675 0.10463C11.4584 0.0642666 11.1704 0.0527344 8.86505 0.0527344C6.55968 0.0527344 6.26419 0.0527343 5.36262 0.10463C4.65778 0.118619 3.96048 0.255128 3.30081 0.508261C2.73621 0.730259 2.22343 1.06995 1.79537 1.50554C1.3673 1.94114 1.03342 2.46301 0.815124 3.03768C0.567126 3.71003 0.433363 4.42044 0.419566 5.13848C0.378972 6.06299 0.366699 6.3561 0.366699 8.70389C0.366699 11.0507 0.366699 11.3496 0.419566 12.2693C0.433727 12.9881 0.566838 13.6974 0.815124 14.3711C1.03403 14.9455 1.36824 15.4672 1.79641 15.9027C2.22457 16.3382 2.73727 16.6781 3.30176 16.9005C3.96017 17.163 4.65777 17.3093 5.36451 17.3329C6.27363 17.3733 6.56157 17.3858 8.86694 17.3858C11.1723 17.3858 11.4678 17.3858 12.3694 17.3329C13.0747 17.3183 13.7725 17.1822 14.4331 16.9303C14.9974 16.7075 15.5099 16.3674 15.9379 15.9317C16.3658 15.4961 16.6999 14.9743 16.9188 14.3999C17.167 13.7272 17.3002 13.0179 17.3143 12.2991C17.3549 11.3746 17.3672 11.0815 17.3672 8.73368C17.3672 6.38589 17.3672 6.08798 17.3143 5.16827C17.3033 4.44008 17.1689 3.71929 16.9169 3.03768ZM15.767 12.1982C15.7609 12.752 15.6616 13.3007 15.4734 13.8204C15.3316 14.1941 15.1146 14.5335 14.8363 14.8167C14.5579 15.0999 14.2244 15.3206 13.8572 15.4647C13.3523 15.6554 12.8191 15.7565 12.2806 15.7636C11.3838 15.8059 11.1308 15.8164 8.83107 15.8164C6.52947 15.8164 6.2944 15.8164 5.38056 15.7636C4.84238 15.7569 4.30937 15.6558 3.80494 15.4647C3.43646 15.3215 3.10162 15.1011 2.82207 14.8179C2.54253 14.5346 2.32451 14.1948 2.18211 13.8204C1.99655 13.3063 1.8973 12.7641 1.88851 12.2164C1.84792 11.3035 1.83848 11.0459 1.83848 8.70485C1.83848 6.36283 1.83848 6.12353 1.88851 5.1923C1.89461 4.63877 1.99392 4.09041 2.18211 3.57105C2.47005 2.8128 3.06008 2.216 3.80494 1.92577C4.30962 1.73563 4.84247 1.63455 5.38056 1.62689C6.27835 1.58557 6.53041 1.57404 8.83107 1.57404C11.1317 1.57404 11.3677 1.57404 12.2806 1.62689C12.8191 1.63349 13.3525 1.7346 13.8572 1.92577C14.2244 2.07019 14.5578 2.29116 14.8362 2.5745C15.1145 2.85783 15.3316 3.19728 15.4734 3.57105C15.659 4.08515 15.7582 4.62737 15.767 5.175C15.8076 6.08894 15.818 6.34553 15.818 8.68755C15.818 11.0286 15.818 11.2804 15.7774 12.1991H15.767V12.1982Z" fill="#F4F1F1"/>
</svg>
