<svg width="26" height="26" viewBox="0 0 26 26" fill="none" xmlns="http://www.w3.org/2000/svg">
<g clip-path="url(#clip0_2_4956)">
<path d="M17.9626 8.86638C17.8554 8.58861 17.6911 8.33639 17.4805 8.12595C17.2698 7.91552 17.0174 7.75154 16.7395 7.64459C16.3569 7.50287 15.9528 7.42797 15.5448 7.42314C14.8663 7.39225 14.6629 7.38452 12.9441 7.38452C11.2253 7.38452 11.0219 7.39225 10.3434 7.42314C9.93501 7.42782 9.53042 7.50273 9.14739 7.64459C8.86962 7.75184 8.61739 7.91608 8.40696 8.12673C8.19653 8.33739 8.03255 8.58979 7.92559 8.86767C7.78388 9.2503 7.70897 9.65443 7.70415 10.0624C7.67325 10.7409 7.66553 10.9443 7.66553 12.6631C7.66553 14.3818 7.67325 14.5853 7.70415 15.2638C7.70883 15.6722 7.78373 16.0768 7.92559 16.4598C8.03284 16.7376 8.19708 16.9898 8.40774 17.2002C8.6184 17.4107 8.87079 17.5746 9.14868 17.6816C9.5313 17.8233 9.93544 17.8982 10.3434 17.903C11.0219 17.9339 11.2253 17.9417 12.9441 17.9417C14.6629 17.9417 14.8663 17.9339 15.5448 17.903C15.9532 17.8984 16.3578 17.8235 16.7408 17.6816C17.0186 17.5744 17.2708 17.4101 17.4812 17.1995C17.6917 16.9888 17.8556 16.7364 17.9626 16.4585C18.1043 16.0759 18.1792 15.6718 18.184 15.2638C18.2149 14.5853 18.2227 14.3818 18.2227 12.6631C18.2227 10.9443 18.2149 10.7409 18.184 10.0624C18.1794 9.654 18.1045 9.24942 17.9626 8.86638ZM12.9441 15.9693C12.2902 15.9693 11.651 15.7754 11.1073 15.4121C10.5636 15.0488 10.1398 14.5324 9.88958 13.9283C9.63934 13.3242 9.57387 12.6594 9.70144 12.0181C9.82901 11.3768 10.1439 10.7876 10.6063 10.3253C11.0686 9.86289 11.6578 9.548 12.2991 9.42043C12.9404 9.29286 13.6052 9.35834 14.2093 9.60857C14.8134 9.85881 15.3298 10.2826 15.6931 10.8263C16.0564 11.37 16.2503 12.0092 16.2503 12.6631C16.2503 13.5399 15.902 14.3809 15.2819 15.0009C14.6619 15.621 13.821 15.9693 12.9441 15.9693ZM16.3803 9.99935C16.2275 9.99935 16.0782 9.95404 15.9512 9.86916C15.8241 9.78428 15.7251 9.66364 15.6666 9.52249C15.6082 9.38133 15.5929 9.22601 15.6227 9.07617C15.6525 8.92632 15.7261 8.78868 15.8341 8.68065C15.9421 8.57262 16.0798 8.49905 16.2296 8.46924C16.3795 8.43943 16.5348 8.45473 16.6759 8.5132C16.8171 8.57167 16.9377 8.67068 17.0226 8.79771C17.1075 8.92474 17.1528 9.07409 17.1528 9.22687C17.1528 9.43174 17.0714 9.62823 16.9265 9.77309C16.7817 9.91796 16.5852 9.99935 16.3803 9.99935Z" fill="#F4F1F1"/>
<path d="M12.9441 14.8089C14.1292 14.8089 15.0899 13.8482 15.0899 12.6631C15.0899 11.478 14.1292 10.5173 12.9441 10.5173C11.759 10.5173 10.7983 11.478 10.7983 12.6631C10.7983 13.8482 11.759 14.8089 12.9441 14.8089Z" fill="#F4F1F1"/>
<path d="M12.9441 0.303467C10.4996 0.303467 8.10997 1.02834 6.07745 2.38643C4.04492 3.74452 2.46076 5.67482 1.5253 7.93324C0.589828 10.1917 0.345067 12.6768 0.821964 15.0743C1.29886 17.4718 2.476 19.6741 4.20452 21.4026C5.93303 23.1311 8.1353 24.3083 10.5328 24.7851C12.9304 25.262 15.4155 25.0173 17.6739 24.0818C19.9323 23.1463 21.8626 21.5622 23.2207 19.5297C24.5788 17.4971 25.3036 15.1075 25.3036 12.6631C25.3036 11.04 24.984 9.43278 24.3628 7.93324C23.7417 6.43371 22.8313 5.0712 21.6836 3.9235C20.5359 2.77581 19.1734 1.86541 17.6739 1.24428C16.1743 0.623157 14.5671 0.303467 12.9441 0.303467ZM19.3427 15.3178C19.3317 15.8516 19.2302 16.3796 19.0427 16.8795C18.8774 17.307 18.6246 17.6953 18.3004 18.0194C17.9763 18.3436 17.588 18.5964 17.1605 18.7617C16.6606 18.9492 16.1326 19.0507 15.5988 19.0617C14.9113 19.0926 14.6924 19.1003 12.9441 19.1003C11.1957 19.1003 10.9768 19.0926 10.2893 19.0617C9.75556 19.0507 9.22752 18.9492 8.72764 18.7617C8.3001 18.5964 7.91183 18.3436 7.58769 18.0194C7.26356 17.6953 7.01072 17.307 6.84538 16.8795C6.65788 16.3796 6.55645 15.8516 6.5454 15.3178C6.5145 14.6303 6.50678 14.4114 6.50678 12.6631C6.50678 10.9147 6.5145 10.6958 6.5454 10.0083C6.55645 9.47454 6.65788 8.94651 6.84538 8.44663C7.01072 8.01909 7.26356 7.63082 7.58769 7.30668C7.91183 6.98255 8.3001 6.72971 8.72764 6.56437C9.22752 6.37686 9.75556 6.27544 10.2893 6.26439C10.9768 6.23349 11.1957 6.22577 12.9441 6.22577C14.6924 6.22577 14.9113 6.23349 15.5988 6.26439C16.1326 6.27544 16.6606 6.37686 17.1605 6.56437C17.588 6.72971 17.9763 6.98255 18.3004 7.30668C18.6246 7.63082 18.8774 8.01909 19.0427 8.44663C19.2302 8.94651 19.3317 9.47454 19.3427 10.0083C19.3736 10.6958 19.3813 10.9147 19.3813 12.6631C19.3813 14.4114 19.3736 14.6303 19.3427 15.3178Z" fill="#F4F1F1"/>
</g>
<defs>
<clipPath id="clip0_2_4956">
<rect width="24.7191" height="24.7191" fill="white" transform="translate(0.584473 0.303467)"/>
</clipPath>
</defs>
</svg>
