<svg width="49" height="49" viewBox="0 0 49 49" fill="none" xmlns="http://www.w3.org/2000/svg">
<path d="M35.0443 11.1523C34.5696 11.1523 34.1056 11.2931 33.7109 11.5568C33.3162 11.8205 33.0086 12.1953 32.8269 12.6339C32.6453 13.0724 32.5978 13.555 32.6904 14.0205C32.783 14.4861 33.0116 14.9137 33.3472 15.2494C33.6829 15.585 34.1105 15.8136 34.576 15.9062C35.0416 15.9988 35.5242 15.9513 35.9627 15.7696C36.4012 15.588 36.7761 15.2803 37.0398 14.8857C37.3035 14.491 37.4443 14.027 37.4443 13.5523C37.4443 12.9158 37.1914 12.3053 36.7413 11.8552C36.2912 11.4052 35.6808 11.1523 35.0443 11.1523ZM44.2443 15.9923C44.2054 14.3329 43.8946 12.6911 43.3243 11.1323C42.8157 9.79857 42.0242 8.59086 41.0043 7.5923C40.0139 6.56715 38.8034 5.78065 37.4643 5.2923C35.9096 4.70462 34.266 4.38672 32.6043 4.3523C30.4843 4.2323 29.8043 4.2323 24.3643 4.2323C18.9243 4.2323 18.2443 4.2323 16.1243 4.3523C14.4626 4.38672 12.8189 4.70462 11.2643 5.2923C9.92761 5.7856 8.71813 6.57142 7.72426 7.5923C6.69911 8.58266 5.91261 9.79318 5.42426 11.1323C4.83658 12.687 4.51868 14.3306 4.48426 15.9923C4.36426 18.1123 4.36426 18.7923 4.36426 24.2323C4.36426 29.6723 4.36426 30.3523 4.48426 32.4723C4.51868 34.134 4.83658 35.7776 5.42426 37.3323C5.91261 38.6714 6.69911 39.8819 7.72426 40.8723C8.71813 41.8932 9.92761 42.679 11.2643 43.1723C12.8189 43.76 14.4626 44.0779 16.1243 44.1123C18.2443 44.2323 18.9243 44.2323 24.3643 44.2323C29.8043 44.2323 30.4843 44.2323 32.6043 44.1123C34.266 44.0779 35.9096 43.76 37.4643 43.1723C38.8034 42.684 40.0139 41.8975 41.0043 40.8723C42.0287 39.8775 42.8209 38.6687 43.3243 37.3323C43.8946 35.7735 44.2054 34.1317 44.2443 32.4723C44.2443 30.3523 44.3643 29.6723 44.3643 24.2323C44.3643 18.7923 44.3643 18.1123 44.2443 15.9923ZM40.6443 32.2323C40.6297 33.5018 40.3998 34.7597 39.9643 35.9523C39.6449 36.8227 39.132 37.6092 38.4643 38.2523C37.8156 38.9133 37.0307 39.4252 36.1643 39.7523C34.9717 40.1878 33.7138 40.4177 32.4443 40.4323C30.4443 40.5323 29.7043 40.5523 24.4443 40.5523C19.1843 40.5523 18.4443 40.5523 16.4443 40.4323C15.126 40.457 13.8134 40.254 12.5643 39.8323C11.7358 39.4885 10.987 38.9779 10.3643 38.3323C9.70044 37.6898 9.19394 36.9027 8.88426 36.0323C8.39597 34.8226 8.12515 33.5362 8.08426 32.2323C8.08426 30.2323 7.96426 29.4923 7.96426 24.2323C7.96426 18.9723 7.96426 18.2323 8.08426 16.2323C8.09322 14.9344 8.33016 13.6482 8.78426 12.4323C9.13635 11.5881 9.67679 10.8356 10.3643 10.2323C10.9719 9.54464 11.7228 8.99849 12.5643 8.6323C13.7834 8.19239 15.0683 7.96246 16.3643 7.9523C18.3643 7.9523 19.1043 7.8323 24.3643 7.8323C29.6243 7.8323 30.3643 7.8323 32.3643 7.9523C33.6338 7.96686 34.8917 8.19679 36.0843 8.6323C36.9931 8.9696 37.8088 9.51799 38.4643 10.2323C39.1197 10.8467 39.6318 11.5978 39.9643 12.4323C40.4088 13.6502 40.6388 14.9359 40.6443 16.2323C40.7443 18.2323 40.7643 18.9723 40.7643 24.2323C40.7643 29.4923 40.7443 30.2323 40.6443 32.2323ZM24.3643 13.9723C22.3359 13.9763 20.3542 14.5814 18.6696 15.7111C16.985 16.8409 15.673 18.4447 14.8995 20.3198C14.126 22.1949 13.9257 24.2572 14.3238 26.2462C14.722 28.2351 15.7007 30.0614 17.1364 31.4943C18.5721 32.9271 20.4003 33.9023 22.39 34.2966C24.3797 34.6909 26.4416 34.4865 28.3152 33.7094C30.1888 32.9322 31.79 31.6172 32.9165 29.9304C34.043 28.2436 34.6443 26.2607 34.6443 24.2323C34.6469 22.8825 34.3827 21.5455 33.8667 20.2982C33.3508 19.0509 32.5934 17.9179 31.638 16.9644C30.6826 16.0109 29.5482 15.2557 28.2999 14.7422C27.0516 14.2287 25.714 13.967 24.3643 13.9723ZM24.3643 30.8923C23.047 30.8923 21.7594 30.5017 20.6642 29.7699C19.5689 29.0381 18.7153 27.9979 18.2112 26.781C17.7071 25.564 17.5753 24.2249 17.8322 22.933C18.0892 21.6411 18.7235 20.4544 19.6549 19.523C20.5863 18.5916 21.773 17.9572 23.065 17.7003C24.3569 17.4433 25.696 17.5752 26.9129 18.0793C28.1299 18.5833 29.17 19.437 29.9018 20.5322C30.6337 21.6274 31.0243 22.9151 31.0243 24.2323C31.0243 25.1069 30.852 25.9729 30.5173 26.781C30.1826 27.589 29.692 28.3232 29.0736 28.9416C28.4552 29.5601 27.721 30.0506 26.9129 30.3853C26.1049 30.72 25.2389 30.8923 24.3643 30.8923Z" fill="#F4F1F1"/>
</svg>
