<svg width="49" height="49" viewBox="0 0 49 49" fill="none" xmlns="http://www.w3.org/2000/svg">
<path d="M40.0147 28.1162V39.1484C40.0147 39.4194 39.7824 39.6517 39.5115 39.6517H33.8212C33.5502 39.6517 33.3179 39.4194 33.3179 39.1484V28.8904C33.3179 26.1807 32.3502 24.3226 29.9115 24.3226C28.0534 24.3226 26.9695 25.5613 26.4663 26.7613C26.2728 27.1871 26.2341 27.8065 26.2341 28.3871V39.1484C26.2341 39.4194 26.0018 39.6517 25.7308 39.6517H20.0792C19.8082 39.6517 19.576 39.4194 19.576 39.1484C19.576 36.4 19.6534 23.1226 19.576 20.0258C19.576 19.7549 19.8082 19.5226 20.0792 19.5226H25.7695C26.0405 19.5226 26.2728 19.7549 26.2728 20.0258V22.3871C26.2728 22.4258 26.2341 22.4258 26.2341 22.4646H26.2728V22.3871C27.1631 21.0323 28.7502 19.0581 32.3115 19.0581C36.7244 19.0581 40.0147 21.9613 40.0147 28.1162ZM9.66631 39.6904H15.3566C15.6276 39.6904 15.8599 39.4581 15.8599 39.1871V20.0258C15.8599 19.7549 15.6276 19.5226 15.3566 19.5226H9.66631C9.39534 19.5226 9.16309 19.7549 9.16309 20.0258V39.1871C9.2018 39.4581 9.39534 39.6904 9.66631 39.6904Z" fill="#F4F1F1"/>
<path d="M12.3373 17.0065C14.3255 17.0065 15.9373 15.3947 15.9373 13.4065C15.9373 11.4183 14.3255 9.80649 12.3373 9.80649C10.3491 9.80649 8.7373 11.4183 8.7373 13.4065C8.7373 15.3947 10.3491 17.0065 12.3373 17.0065Z" fill="#F4F1F1"/>
</svg>
