<svg width="18" height="17" viewBox="0 0 18 17" fill="none" xmlns="http://www.w3.org/2000/svg">
<path d="M17.0547 0H1.92509C1.6743 0 1.43379 0.0981707 1.25645 0.272916C1.07912 0.447661 0.979492 0.684666 0.979492 0.931793V15.8405C0.979492 16.0876 1.07912 16.3246 1.25645 16.4994C1.43379 16.6741 1.6743 16.7723 1.92509 16.7723H17.0547C17.3055 16.7723 17.546 16.6741 17.7234 16.4994C17.9007 16.3246 18.0003 16.0876 18.0003 15.8405V0.931793C18.0003 0.684666 17.9007 0.447661 17.7234 0.272916C17.546 0.0981707 17.3055 0 17.0547 0ZM6.02806 14.2909H3.50141V6.28681H6.02806V14.2909ZM4.76474 5.19382C4.37651 5.19382 4.00419 5.04185 3.72968 4.77134C3.45517 4.50084 3.30094 4.13395 3.30094 3.7514C3.30094 3.36885 3.45517 3.00196 3.72968 2.73146C4.00419 2.46095 4.37651 2.30898 4.76474 2.30898C5.15296 2.30898 5.52528 2.46095 5.79979 2.73146C6.07431 3.00196 6.22853 3.36885 6.22853 3.7514C6.22853 4.13395 6.07431 4.50084 5.79979 4.77134C5.52528 5.04185 5.15296 5.19382 4.76474 5.19382ZM15.4831 14.2909H12.9593V10.3988C12.9593 9.47075 12.9423 8.27712 11.6468 8.27712C10.3324 8.27712 10.1329 9.28905 10.1329 10.3336V14.2918H7.611V6.28774H10.0317V7.38167H10.0667C10.4024 6.75271 11.227 6.08927 12.4534 6.08927C15.0103 6.08927 15.4822 7.746 15.4822 9.90217L15.4831 14.2909Z" fill="#F4F1F1"/>
</svg>
