<svg width="26" height="26" viewBox="0 0 26 26" fill="none" xmlns="http://www.w3.org/2000/svg">
<g clip-path="url(#clip0_2_4963)">
<path d="M13.1012 0.303711C6.2752 0.303711 0.741699 5.83721 0.741699 12.6632C0.741699 19.4893 6.2752 25.0228 13.1012 25.0228C19.9272 25.0228 25.4608 19.4893 25.4608 12.6632C25.4608 5.83721 19.9271 0.303711 13.1012 0.303711ZM9.80368 18.6385H7.09002V9.87144H9.80368V18.6385ZM8.43392 8.72333C7.54767 8.72333 6.8292 7.99901 6.8292 7.10566C6.8292 6.21221 7.54777 5.48794 8.43392 5.48794C9.32007 5.48794 10.0385 6.21221 10.0385 7.10566C10.0386 7.99906 9.32012 8.72333 8.43392 8.72333ZM19.9731 18.6385H17.2726V14.0365C17.2726 12.7743 16.7932 12.0698 15.7951 12.0698C14.7089 12.0698 14.1415 12.8036 14.1415 14.0365V18.6385H11.5388V9.87144H14.1415V11.0522C14.1415 11.0522 14.9244 9.60402 16.7833 9.60402C18.6424 9.60402 19.9732 10.7391 19.9732 13.0873L19.9731 18.6385Z" fill="#F4F1F1"/>
</g>
<defs>
<clipPath id="clip0_2_4963">
<rect width="24.7191" height="24.7191" fill="white" transform="translate(0.741699 0.303467)"/>
</clipPath>
</defs>
</svg>
