<svg width="25" height="21" viewBox="0 0 25 21" fill="none" xmlns="http://www.w3.org/2000/svg">
<path d="M22.5344 17.6521L18.0154 13.0258C18.8022 11.7215 19.2779 10.2001 19.2779 8.55491C19.2779 3.82997 15.5366 0 10.9212 0C6.30569 0 2.56445 3.82997 2.56445 8.55491C2.56445 13.2799 6.30569 17.1098 10.9212 17.1098C12.5282 17.1098 14.0144 16.6229 15.2872 15.8187L19.8076 20.4449C20.1714 20.805 20.6588 21.0043 21.1648 20.9999C21.6708 20.9955 22.1549 20.7877 22.5126 20.4213C22.8704 20.0549 23.0731 19.5593 23.0772 19.0413C23.0813 18.5232 22.8863 18.0243 22.5344 17.6521ZM10.9212 14.4775C7.72633 14.4775 5.13575 11.8255 5.13575 8.55491C5.13575 5.2843 7.72633 2.63228 10.9212 2.63228C14.116 2.63228 16.7066 5.2843 16.7066 8.55491C16.7066 11.8255 14.116 14.4775 10.9212 14.4775Z" fill="#1D191D"/>
</svg>
