<svg width="23" height="25" viewBox="0 0 23 25" fill="none" xmlns="http://www.w3.org/2000/svg">
<path d="M11.2138 0.54541C5.22055 0.54541 0.361694 5.98992 0.361694 12.7056C0.361694 19.4212 5.22055 24.8657 11.2138 24.8657C17.2071 24.8657 22.0659 19.4212 22.0659 12.7056C22.0659 5.98992 17.2071 0.54541 11.2138 0.54541ZM11.2138 23.2444C6.02794 23.2444 1.80864 18.5165 1.80864 12.7056C1.80864 6.89463 6.02794 2.16676 11.2138 2.16676C16.3997 2.16676 20.619 6.89463 20.619 12.7056C20.619 18.5165 16.3997 23.2444 11.2138 23.2444ZM15.219 7.07136L11.2413 11.5285L7.67457 7.07136C7.53812 6.92369 7.35537 6.84198 7.16568 6.84382C6.97599 6.84567 6.79453 6.93093 6.66039 7.08123C6.52625 7.23154 6.45017 7.43487 6.44852 7.64742C6.44687 7.85998 6.51979 8.06476 6.65158 8.21766L10.2198 12.6748L6.18711 17.1935C6.05532 17.3464 5.9824 17.5511 5.98405 17.7637C5.9857 17.9763 6.06178 18.1796 6.19592 18.3299C6.33006 18.4802 6.51151 18.5655 6.70121 18.5673C6.8909 18.5692 7.07365 18.4874 7.2101 18.3398L11.1878 13.8827L14.7559 18.3398C14.8924 18.4874 15.0751 18.5692 15.2648 18.5673C15.4545 18.5655 15.636 18.4802 15.7701 18.3299C15.9043 18.1796 15.9803 17.9763 15.982 17.7637C15.9836 17.5511 15.9107 17.3464 15.7789 17.1935L12.2093 12.7364L16.242 8.21766C16.3737 8.06476 16.4467 7.85998 16.445 7.64742C16.4434 7.43487 16.3673 7.23154 16.2331 7.08123C16.099 6.93093 15.9175 6.84567 15.7278 6.84382C15.5382 6.84198 15.3554 6.92369 15.219 7.07136Z" fill="#1D763D"/>
</svg>
