<svg width="23" height="16" viewBox="0 0 23 16" fill="none" xmlns="http://www.w3.org/2000/svg">
<path d="M21.3125 0H1.1875C0.531662 0 0 0.549384 0 1.22708V1.35625C0 2.03395 0.531662 2.58333 1.1875 2.58333H21.3125C21.9683 2.58333 22.5 2.03395 22.5 1.35625V1.22708C22.5 0.549384 21.9683 0 21.3125 0Z" fill="black"/>
<path d="M21.3125 12.9167H1.1875C0.531662 12.9167 0 13.4661 0 14.1438V14.273C0 14.9507 0.531662 15.5001 1.1875 15.5001H21.3125C21.9683 15.5001 22.5 14.9507 22.5 14.273V14.1438C22.5 13.4661 21.9683 12.9167 21.3125 12.9167Z" fill="black"/>
<path d="M21.3125 6.45825H1.1875C0.531662 6.45825 0 7.00764 0 7.68534V7.8145C0 8.4922 0.531662 9.04159 1.1875 9.04159H21.3125C21.9683 9.04159 22.5 8.4922 22.5 7.8145V7.68534C22.5 7.00764 21.9683 6.45825 21.3125 6.45825Z" fill="black"/>
</svg>
