<svg width="17" height="17" viewBox="0 0 17 17" fill="none" xmlns="http://www.w3.org/2000/svg">
<path d="M3.13211 13.4651C3.16764 13.3186 3.17047 13.1654 3.14039 13.0175C3.11031 12.8696 3.04812 12.7309 2.95862 12.6121C2.86997 12.4927 2.7563 12.3963 2.62635 12.3301C2.49641 12.264 2.35365 12.2299 2.2091 12.2304H1.2412C1.15633 12.2305 1.0739 12.2601 1.00703 12.3147C0.940161 12.3693 0.892681 12.4457 0.872143 12.5318L0.49396 14.1131L0.490156 14.1298L0.111212 15.712C0.089394 15.8133 0.106379 15.9195 0.158534 16.0078C0.210689 16.0962 0.293874 16.1598 0.390298 16.1849C0.486723 16.2101 0.588733 16.1948 0.674513 16.1423C0.760293 16.0899 0.823033 16.0045 0.849315 15.9044L1.15825 14.6156H2.11474C2.55228 14.6156 2.93199 14.3055 3.03775 13.8627L3.13211 13.4651ZM2.29889 13.6711C2.28839 13.7139 2.2645 13.7519 2.23101 13.779C2.19751 13.806 2.15633 13.8207 2.11398 13.8205H1.34849L1.53872 13.0255H2.20986C2.23877 13.0255 2.26728 13.0325 2.29324 13.0458C2.31919 13.0591 2.34191 13.0783 2.35966 13.1022C2.37741 13.126 2.38973 13.1538 2.39568 13.1833C2.40163 13.2129 2.40106 13.2435 2.39401 13.2727L2.29889 13.6711ZM5.51839 13.8325C5.44379 13.8127 5.36518 13.8174 5.29319 13.8458C5.2212 13.8743 5.15931 13.9251 5.11586 13.9915C4.95043 13.8814 4.75875 13.8222 4.56266 13.8205H4.02088C3.5529 13.8205 3.14733 14.1521 3.03395 14.6251L2.98373 14.8358C2.90459 15.1673 2.9746 15.5124 3.17624 15.7811C3.37789 16.0514 3.67998 16.2057 4.00718 16.2057H4.54896C4.6593 16.2057 4.76507 16.1842 4.86551 16.15C4.89367 16.1667 4.92106 16.185 4.95378 16.1938C5.00225 16.2066 5.05267 16.2093 5.10214 16.2017C5.15161 16.194 5.19915 16.1763 5.24201 16.1494C5.28488 16.1225 5.32222 16.087 5.35189 16.0449C5.38157 16.0029 5.40298 15.9551 5.4149 15.9044L5.79537 14.3143C5.81976 14.212 5.80429 14.1038 5.75235 14.0134C5.70041 13.9231 5.61626 13.858 5.51839 13.8325ZM4.00718 15.4106C3.96258 15.4107 3.91855 15.4001 3.87844 15.3797C3.83834 15.3593 3.80323 15.3296 3.77578 15.2929C3.74833 15.2562 3.72927 15.2134 3.72005 15.1678C3.71083 15.1222 3.7117 15.075 3.72259 15.0298L3.77281 14.8183C3.78648 14.7605 3.81837 14.7091 3.86336 14.6724C3.90836 14.6358 3.96384 14.6161 4.02088 14.6164H4.56266C4.60726 14.6163 4.6513 14.6269 4.6914 14.6473C4.7315 14.6677 4.76662 14.6974 4.79407 14.7341C4.82152 14.7708 4.84058 14.8136 4.84979 14.8592C4.85901 14.9048 4.85814 14.952 4.84725 14.9972L4.79703 15.2087C4.78337 15.2665 4.75147 15.3179 4.70648 15.3546C4.66148 15.3912 4.606 15.4109 4.54896 15.4106H4.00718ZM12.2633 13.4651C12.2988 13.3186 12.3016 13.1654 12.2716 13.0175C12.2415 12.8696 12.1793 12.7309 12.0898 12.6121C12.001 12.4929 11.8873 12.3965 11.7574 12.3304C11.6275 12.2642 11.4848 12.23 11.3403 12.2304H10.3724C10.2875 12.2305 10.2051 12.2601 10.1382 12.3147C10.0713 12.3693 10.0239 12.4457 10.0033 12.5318L9.62514 14.1131L9.62133 14.1298L9.24239 15.712C9.22057 15.8133 9.23756 15.9195 9.28971 16.0078C9.34187 16.0962 9.42505 16.1598 9.52148 16.1849C9.6179 16.2101 9.71991 16.1948 9.80569 16.1423C9.89147 16.0899 9.95421 16.0045 9.98049 15.9044L10.2887 14.6156H11.2452C11.6827 14.6156 12.0624 14.3055 12.1682 13.8627L12.2633 13.4651ZM11.4301 13.6711C11.4198 13.7139 11.3961 13.752 11.3627 13.7791C11.3293 13.8062 11.2882 13.8208 11.2459 13.8205H10.4797L10.6699 13.0255H11.341C11.3699 13.0255 11.3985 13.0325 11.4244 13.0458C11.4504 13.0591 11.4731 13.0783 11.4908 13.1022C11.5086 13.126 11.5209 13.1538 11.5269 13.1833C11.5328 13.2129 11.5322 13.2435 11.5252 13.2727L11.4301 13.6711ZM14.6496 13.8325C14.5749 13.8127 14.4961 13.8173 14.424 13.8457C14.3519 13.8742 14.2898 13.925 14.2463 13.9915C14.0811 13.8816 13.8897 13.8223 13.6938 13.8205H13.1521C12.6841 13.8205 12.2785 14.1521 12.1651 14.6251L12.1149 14.8358C12.0358 15.1673 12.1058 15.5124 12.3074 15.7811C12.4058 15.9133 12.5318 16.0203 12.6758 16.0937C12.8199 16.1672 12.9781 16.2052 13.1384 16.2049H13.6801C13.7905 16.2049 13.8962 16.1834 13.9967 16.1492C14.0248 16.1659 14.0522 16.1842 14.085 16.193C14.1334 16.2058 14.1838 16.2085 14.2332 16.201C14.2826 16.1934 14.3301 16.1757 14.373 16.1489C14.4158 16.122 14.4532 16.0866 14.4829 16.0447C14.5126 16.0027 14.5341 15.955 14.5461 15.9044L14.9265 14.3143C14.9509 14.212 14.9355 14.1038 14.8835 14.0134C14.8316 13.9231 14.7474 13.858 14.6496 13.8325ZM13.1384 15.4106C13.0938 15.4107 13.0497 15.4001 13.0096 15.3797C12.9695 15.3593 12.9344 15.3296 12.907 15.2929C12.8795 15.2562 12.8604 15.2134 12.8512 15.1678C12.842 15.1222 12.8429 15.075 12.8538 15.0298L12.904 14.8183C12.9177 14.7605 12.9495 14.7091 12.9945 14.6724C13.0395 14.6358 13.095 14.6161 13.1521 14.6164H13.6938C13.7384 14.6163 13.7825 14.6269 13.8226 14.6473C13.8627 14.6677 13.8978 14.6974 13.9252 14.7341C13.9527 14.7708 13.9718 14.8136 13.981 14.8592C13.9902 14.9048 13.9893 14.952 13.9784 14.9972L13.9282 15.2087C13.9145 15.2665 13.8827 15.3179 13.8377 15.3546C13.7927 15.3912 13.7372 15.4109 13.6801 15.4106H13.1384ZM8.17785 13.9636L7.44735 14.8803L6.88426 13.9978C6.82702 13.9135 6.74056 13.8557 6.64324 13.8369C6.54593 13.818 6.44541 13.8396 6.36303 13.8969C6.28065 13.9542 6.22289 14.0428 6.202 14.1439C6.18112 14.245 6.19875 14.3506 6.25117 14.4383L6.93905 15.5164L6.27552 16.3488C6.21103 16.4299 6.17987 16.5344 6.18885 16.6394C6.19784 16.7444 6.24623 16.8414 6.32346 16.9093C6.40158 16.9757 6.50149 17.0075 6.60178 16.9978C6.70206 16.9882 6.79473 16.9378 6.85991 16.8576L8.76224 14.4725C8.82673 14.3914 8.85789 14.2869 8.84891 14.1819C8.83993 14.0769 8.79153 13.9798 8.7143 13.912C8.63642 13.845 8.53636 13.8128 8.4359 13.8225C8.33544 13.8322 8.2427 13.8829 8.17785 13.9636ZM16.5519 12.2424C16.5034 12.2294 16.453 12.2266 16.4035 12.2342C16.354 12.2418 16.3064 12.2595 16.2635 12.2865C16.2206 12.3134 16.1833 12.3489 16.1536 12.391C16.124 12.4331 16.1026 12.481 16.0908 12.5318L15.3298 15.712C15.308 15.8133 15.325 15.9195 15.3772 16.0078C15.4293 16.0962 15.5125 16.1598 15.6089 16.1849C15.7054 16.2101 15.8074 16.1948 15.8931 16.1423C15.9789 16.0899 16.0417 16.0045 16.0679 15.9044L16.8289 12.7242C16.8533 12.6219 16.8378 12.5137 16.7859 12.4233C16.7339 12.333 16.6498 12.2679 16.5519 12.2424ZM13.0425 6.28982L13.324 5.11156C13.4815 4.45087 13.3575 3.76554 12.9923 3.27658C12.8754 3.11394 12.727 2.97884 12.5568 2.88008C12.3867 2.78131 12.1985 2.7211 12.0046 2.70335L12.019 2.6C12.0583 2.31473 12.0384 2.02396 11.9607 1.74744C11.8829 1.47091 11.7491 1.21511 11.5684 0.997383C11.3876 0.779657 11.1642 0.60511 10.9132 0.485589C10.6622 0.366068 10.3895 0.304372 10.1137 0.304689H5.80678C5.71767 0.304847 5.63142 0.337621 5.56303 0.397316C5.49463 0.457011 5.44842 0.539855 5.43241 0.631454L3.91054 9.377C3.90035 9.4343 3.90239 9.49325 3.91652 9.54963C3.93065 9.60602 3.95652 9.65845 3.99228 9.70318C4.02804 9.74791 4.07281 9.78384 4.1234 9.80841C4.17398 9.83297 4.22914 9.84556 4.28492 9.84528H6.07996L5.81744 10.9417C5.80344 11.0003 5.80242 11.0615 5.81447 11.1207C5.82652 11.1798 5.85132 11.2353 5.88698 11.2829C5.92263 11.3305 5.96821 11.3689 6.02024 11.3954C6.07228 11.4218 6.12939 11.4355 6.18725 11.4354H8.08958C8.17445 11.4354 8.25687 11.4057 8.32374 11.3511C8.39061 11.2965 8.43809 11.2201 8.45863 11.1341L9.14727 8.25518H10.6326C11.1867 8.25597 11.7251 8.06286 12.1619 7.70664C12.5987 7.35042 12.9087 6.85162 13.0425 6.28982ZM8.85051 7.46013C8.76564 7.46016 8.68322 7.48983 8.61635 7.54443C8.54948 7.59903 8.502 7.67542 8.48146 7.76146L7.79205 10.6403H6.67501L6.93753 9.54396L7.62617 6.66508H8.85051C9.57473 6.66211 10.2739 6.38787 10.8211 5.89216C11.3683 5.39645 11.7272 4.71214 11.8326 3.96351L11.898 3.48568C12.1347 3.48727 12.2975 3.63913 12.3926 3.76633C12.611 4.05971 12.6856 4.50096 12.5852 4.91995L12.3036 6.09821C12.2108 6.48761 11.996 6.83334 11.6933 7.08031C11.3906 7.32728 11.0174 7.46128 10.6334 7.46093L8.85051 7.46013Z" fill="#F4F1F1"/>
</svg>
