<svg width="12" height="15" viewBox="0 0 12 15" fill="none" xmlns="http://www.w3.org/2000/svg">
<path d="M4.50641 9.57027L3.87676 8.81965C3.85763 8.7968 3.83487 8.77867 3.8098 8.7663C3.78472 8.75393 3.75783 8.74756 3.73067 8.74756C3.7035 8.74756 3.67661 8.75393 3.65153 8.7663C3.62646 8.77867 3.6037 8.7968 3.58457 8.81965L0.249055 12.7701C0.218066 12.8052 0.197799 12.8515 0.19144 12.9017L0.0700365 13.7937C0.0652289 13.8288 0.0669686 13.8648 0.0751337 13.899C0.0832987 13.9332 0.0976911 13.9649 0.1173 13.9919C0.13691 14.0188 0.16126 14.0403 0.188643 14.0549C0.216025 14.0695 0.245776 14.0769 0.275805 14.0764H0.306671L1.05155 13.9448C1.09466 13.9361 1.1343 13.9113 1.16473 13.8741L4.50641 9.91389C4.54474 9.86823 4.56625 9.80646 4.56625 9.74208C4.56625 9.6777 4.54474 9.61593 4.50641 9.57027Z" fill="#0548A8"/>
<path d="M11.9017 5.47367L7.33156 0.0731123C7.3125 0.0500848 7.28977 0.0317653 7.2647 0.0192152C7.23962 0.00666507 7.21269 0.000133856 7.18546 0C7.13119 0.000915621 7.07942 0.0271943 7.04142 0.0731123L5.93439 1.39401C5.9151 1.41666 5.89979 1.44362 5.88935 1.47331C5.8789 1.50301 5.87352 1.53487 5.87352 1.56704C5.87352 1.59921 5.8789 1.63107 5.88935 1.66076C5.89979 1.69046 5.9151 1.71742 5.93439 1.74007L6.44058 2.33959L5.31708 3.66292C4.66197 4.45829 3.79755 4.96546 2.86637 5.1008C2.81915 5.10752 2.77507 5.13233 2.74085 5.17147L1.61324 6.4948C1.57492 6.54047 1.55341 6.60223 1.55341 6.66662C1.55341 6.731 1.57492 6.79277 1.61324 6.83843L6.17925 12.2414C6.19848 12.264 6.22128 12.2819 6.24635 12.294C6.27142 12.3061 6.29827 12.3123 6.32535 12.3121C6.37933 12.3118 6.43106 12.2865 6.46939 12.2414L7.58054 10.9181C7.61358 10.8776 7.63454 10.8254 7.64021 10.7694C7.75543 9.66691 8.18351 8.64347 8.85425 7.86688L9.97363 6.54111L10.4778 7.14063C10.4969 7.16347 10.5197 7.1816 10.5447 7.19398C10.5698 7.20635 10.5967 7.21272 10.6239 7.21272C10.651 7.21272 10.6779 7.20635 10.703 7.19398C10.7281 7.1816 10.7508 7.16347 10.77 7.14063L11.9017 5.81973C11.921 5.79708 11.9363 5.77012 11.9467 5.74043C11.9572 5.71073 11.9626 5.67887 11.9626 5.6467C11.9626 5.61453 11.9572 5.58268 11.9467 5.55298C11.9363 5.52328 11.921 5.49633 11.9017 5.47367Z" fill="#F20029"/>
<path d="M7.33162 0.0731123C7.31256 0.0500848 7.28984 0.0317653 7.26476 0.0192152C7.23968 0.00666507 7.21275 0.000133856 7.18552 0C7.13125 0.000915621 7.07948 0.0271943 7.04149 0.0731123L5.93445 1.39401C5.91516 1.41666 5.89985 1.44362 5.88941 1.47331C5.87896 1.50301 5.87358 1.53487 5.87358 1.56704C5.87358 1.59921 5.87896 1.63107 5.88941 1.66076C5.89985 1.69046 5.91516 1.71742 5.93445 1.74007L6.44064 2.33959L5.31714 3.66292C4.66203 4.45829 3.79761 4.96546 2.86644 5.1008C2.81921 5.10752 2.77513 5.13233 2.74092 5.17147L1.6133 6.4948C1.57498 6.54047 1.55347 6.60223 1.55347 6.66662C1.55347 6.731 1.57498 6.79277 1.6133 6.83843L3.43024 8.99281L0.249055 12.7703C0.218066 12.8054 0.197799 12.8517 0.19144 12.9019L0.0700365 13.7938C0.0652289 13.829 0.0669686 13.8649 0.0751337 13.8991C0.0832987 13.9333 0.0976911 13.965 0.1173 13.992C0.13691 14.0189 0.16126 14.0405 0.188643 14.0551C0.216025 14.0697 0.245776 14.077 0.275805 14.0765H0.306671L1.05155 13.9449C1.09466 13.9362 1.1343 13.9115 1.16473 13.8743L4.36032 10.0895L6.17931 12.2439C6.19854 12.2665 6.22134 12.2843 6.24641 12.2964C6.27148 12.3086 6.29833 12.3147 6.32541 12.3145C6.37939 12.3143 6.43112 12.2889 6.46945 12.2439L7.5806 10.9181C7.61365 10.8776 7.6346 10.8254 7.64027 10.7694C7.7555 9.66691 8.18357 8.64347 8.85431 7.86688L9.97369 6.54111L10.4778 7.14063C10.497 7.16347 10.5197 7.1816 10.5448 7.19398C10.5699 7.20635 10.5968 7.21272 10.6239 7.21272C10.6511 7.21272 10.678 7.20635 10.7031 7.19398C10.7281 7.1816 10.7509 7.16347 10.77 7.14063L11.9017 5.81973C11.921 5.79708 11.9363 5.77012 11.9468 5.74043C11.9572 5.71073 11.9626 5.67887 11.9626 5.6467C11.9626 5.61453 11.9572 5.58268 11.9468 5.55298C11.9363 5.52328 11.921 5.49633 11.9017 5.47367L7.33162 0.0731123ZM0.919862 13.477L0.52067 13.5477L0.586516 13.0603L3.72861 9.33643L4.07018 9.74099L0.919862 13.477ZM10.6301 6.62884L10.1239 6.02932C10.0854 5.98393 10.0332 5.95846 9.97884 5.95846C9.92447 5.95846 9.87232 5.98393 9.83377 6.02932L8.56829 7.52325C7.84584 8.35622 7.38 9.45197 7.2452 10.6354L6.32541 11.7248L4.50641 9.57039L3.87676 8.81977L2.05571 6.67759L2.97549 5.59065C3.97452 5.4287 4.8993 4.87634 5.60316 4.02117L6.86658 2.52237C6.90491 2.47671 6.92642 2.41494 6.92642 2.35056C6.92642 2.28617 6.90491 2.22441 6.86658 2.17875L6.36039 1.55973L7.18347 0.584898L11.4552 5.6467L10.6301 6.62884Z" fill="#070707"/>
</svg>
