<svg width="10" height="10" viewBox="0 0 10 10" fill="none" xmlns="http://www.w3.org/2000/svg">
<path d="M1 10C0.817 10 0.635 9.95 0.474 9.851C0.329175 9.76114 0.20965 9.63584 0.126712 9.48693C0.0437754 9.33803 0.00016485 9.17045 0 9V1C0 0.653004 0.18 0.331004 0.474 0.149004C0.619145 0.0597649 0.784601 0.00890599 0.954811 0.00120892C1.12502 -0.00648814 1.29439 0.0292295 1.447 0.105004L9.447 4.105C9.6131 4.18821 9.75278 4.31599 9.85039 4.47405C9.948 4.63212 9.9997 4.81423 9.9997 5C9.9997 5.18578 9.948 5.36789 9.85039 5.52596C9.75278 5.68402 9.6131 5.8118 9.447 5.895L1.447 9.895C1.307 9.965 1.152 10 1 10Z" fill="#DADADA"/>
</svg>
