<svg width="25" height="26" viewBox="0 0 25 26" fill="none" xmlns="http://www.w3.org/2000/svg">
<g clip-path="url(#clip0_2_4960)">
<path d="M12.5199 0.303467H12.5137C5.69896 0.303467 0.157243 5.84673 0.157243 12.663C0.153011 15.2663 0.977066 17.8034 2.51019 19.9073L0.969883 24.4988L5.72059 22.9802C7.73576 24.3171 10.1015 25.0278 12.5199 25.0226C19.3346 25.0226 24.8763 19.4778 24.8763 12.663C24.8763 5.84827 19.3346 0.303467 12.5199 0.303467Z" fill="#F4F1F1"/>
<path d="M19.7116 17.7566C19.4135 18.5986 18.23 19.2969 17.2861 19.5008C16.6403 19.6383 15.7968 19.748 12.9571 18.5708C9.32498 17.066 6.98594 13.3751 6.80363 13.1357C6.62906 12.8962 5.33594 11.1813 5.33594 9.4077C5.33594 7.63411 6.23664 6.77048 6.5997 6.3997C6.89788 6.09534 7.39071 5.9563 7.86347 5.9563C8.01641 5.9563 8.15391 5.96402 8.27751 5.9702C8.64057 5.98565 8.82288 6.00728 9.06234 6.58046C9.36052 7.29886 10.0866 9.07245 10.1732 9.25475C10.2612 9.43706 10.3493 9.68425 10.2257 9.92371C10.1098 10.1709 10.0078 10.2806 9.82554 10.4907C9.64324 10.7008 9.47021 10.8615 9.2879 11.0871C9.12105 11.2833 8.93257 11.4934 9.14268 11.8564C9.35279 12.2118 10.0789 13.3967 11.148 14.3484C12.5277 15.5767 13.6462 15.9691 14.0463 16.1359C14.3445 16.2595 14.6998 16.2302 14.9177 15.9984C15.1942 15.7003 15.5357 15.2059 15.8833 14.7192C16.1305 14.3701 16.4425 14.3268 16.7701 14.4504C17.1038 14.5663 18.8696 15.4392 19.2327 15.6199C19.5958 15.8022 19.8352 15.8887 19.9233 16.0417C20.0098 16.1946 20.0098 16.913 19.7116 17.7566Z" fill="#1D763D"/>
</g>
<defs>
<clipPath id="clip0_2_4960">
<rect width="24.7191" height="24.7191" fill="white" transform="translate(0.157227 0.303467)"/>
</clipPath>
</defs>
</svg>
