<svg width="16" height="15" viewBox="0 0 16 15" fill="none" xmlns="http://www.w3.org/2000/svg">
<path d="M8.002 0H7.998C3.58701 0 1.04969e-05 3.36375 1.04969e-05 7.49999C-0.0027286 9.07968 0.530659 10.6192 1.52301 11.8959L0.52601 14.6822L3.60101 13.7606C4.90538 14.5719 6.43668 15.0031 8.002 15C12.413 15 16 11.6353 16 7.49999C16 3.36468 12.413 0 8.002 0ZM12.657 10.5909C12.464 11.1019 11.698 11.5256 11.087 11.6494C10.669 11.7328 10.123 11.7994 8.285 11.085C5.93401 10.1719 4.42001 7.93218 4.30201 7.78687C4.18901 7.64155 3.35201 6.60093 3.35201 5.52468C3.35201 4.44843 3.93501 3.92437 4.17001 3.69937C4.36301 3.51468 4.68201 3.43031 4.98801 3.43031C5.08701 3.43031 5.17601 3.435 5.25601 3.43875C5.49101 3.44812 5.60901 3.46125 5.76401 3.80906C5.95701 4.245 6.42701 5.32124 6.48301 5.43187C6.54001 5.54249 6.59701 5.69249 6.51701 5.83781C6.44201 5.98781 6.37601 6.05437 6.25801 6.18187C6.14001 6.30937 6.02801 6.40687 5.91001 6.54374C5.80201 6.6628 5.68001 6.7903 5.81601 7.01062C5.95201 7.22624 6.42201 7.9453 7.11401 8.5228C8.007 9.26811 8.731 9.50624 8.99 9.60749C9.183 9.68249 9.413 9.66468 9.554 9.52405C9.733 9.34311 9.954 9.04311 10.179 8.7478C10.339 8.53593 10.541 8.50968 10.753 8.58468C10.969 8.65499 12.112 9.18468 12.347 9.29436C12.582 9.40499 12.737 9.45749 12.794 9.5503C12.85 9.64311 12.85 10.0791 12.657 10.5909Z" fill="#F4F1F1"/>
</svg>
