<svg id="Capa_1" data-name="Capa 1" xmlns="http://www.w3.org/2000/svg" xmlns:xlink="http://www.w3.org/1999/xlink" viewBox="0 0 417.21 171.64"><defs><style>.cls-1{font-size:46.35px;font-family:Aileron-UltraLight, Aileron;font-weight:100;}.cls-1,.cls-2{fill:#1d191d;}.cls-3{fill:url(#Degradado_sin_nombre_278);}.cls-4{fill:url(#Degradado_sin_nombre_278-2);}.cls-5{fill:url(#Degradado_sin_nombre_278-3);}.cls-6{fill:url(#Degradado_sin_nombre_278-4);}.cls-7{fill:url(#Degradado_sin_nombre_278-5);}.cls-8{fill:url(#Degradado_sin_nombre_278-6);}.cls-9{fill:url(#Degradado_sin_nombre_278-7);}.cls-10{fill:url(#Degradado_sin_nombre_278-8);}.cls-11{fill:url(#Degradado_sin_nombre_278-9);}.cls-12{fill:url(#Degradado_sin_nombre_278-10);}.cls-13{fill:url(#Degradado_sin_nombre_278-11);}.cls-14{fill:url(#Degradado_sin_nombre_278-12);}.cls-15{fill:url(#Degradado_sin_nombre_278-13);}.cls-16{fill:url(#Degradado_sin_nombre_278-14);}.cls-17{fill:url(#Degradado_sin_nombre_278-15);}.cls-18{fill:url(#Degradado_sin_nombre_15);}.cls-19{fill:url(#Degradado_sin_nombre_15-2);}.cls-20{fill:url(#Degradado_sin_nombre_15-3);}.cls-21{fill:url(#Degradado_sin_nombre_15-4);}.cls-22{fill:url(#Degradado_sin_nombre_15-8);}.cls-23{fill:url(#Degradado_sin_nombre_15-9);}.cls-24{fill:url(#Degradado_sin_nombre_15-10);}</style><linearGradient id="Degradado_sin_nombre_278" x1="103.79" y1="-68.76" x2="103.79" y2="37.24" gradientTransform="translate(-22.76 118.22) rotate(9.38)" gradientUnits="userSpaceOnUse"><stop offset="0" stop-color="#f11281"/><stop offset="0.34" stop-color="#ec6ea8"/><stop offset="0.68" stop-color="#fad34d"/><stop offset="1" stop-color="#f67434"/></linearGradient><linearGradient id="Degradado_sin_nombre_278-2" x1="104.63" y1="-114.75" x2="104.63" y2="-23.96" xlink:href="#Degradado_sin_nombre_278"/><linearGradient id="Degradado_sin_nombre_278-3" x1="85.21" y1="-112.93" x2="85.21" y2="-6.92" xlink:href="#Degradado_sin_nombre_278"/><linearGradient id="Degradado_sin_nombre_278-4" x1="68.25" y1="-112.25" x2="68.25" y2="14.95" xlink:href="#Degradado_sin_nombre_278"/><linearGradient id="Degradado_sin_nombre_278-5" x1="55.63" y1="-110.48" x2="55.63" y2="27.35" xlink:href="#Degradado_sin_nombre_278"/><linearGradient id="Degradado_sin_nombre_278-6" x1="48.85" y1="-111.6" x2="48.85" y2="41.88" xlink:href="#Degradado_sin_nombre_278"/><linearGradient id="Degradado_sin_nombre_278-7" x1="47.37" y1="-122.28" x2="47.37" y2="61.4" xlink:href="#Degradado_sin_nombre_278"/><linearGradient id="Degradado_sin_nombre_278-8" x1="55.3" y1="-106.25" x2="55.3" y2="47.22" xlink:href="#Degradado_sin_nombre_278"/><linearGradient id="Degradado_sin_nombre_278-9" x1="67.76" y1="-94.19" x2="67.76" y2="43.63" xlink:href="#Degradado_sin_nombre_278"/><linearGradient id="Degradado_sin_nombre_278-10" x1="84.6" y1="-84.61" x2="84.6" y2="42.6" xlink:href="#Degradado_sin_nombre_278"/><linearGradient id="Degradado_sin_nombre_278-11" x1="123" y1="-57.88" x2="123" y2="30.46" xlink:href="#Degradado_sin_nombre_278"/><linearGradient id="Degradado_sin_nombre_278-12" x1="152.61" y1="-64.2" x2="152.61" y2="13.54" xlink:href="#Degradado_sin_nombre_278"/><linearGradient id="Degradado_sin_nombre_278-13" x1="141.68" y1="-106.11" x2="141.68" y2="-26.21" xlink:href="#Degradado_sin_nombre_278"/><linearGradient id="Degradado_sin_nombre_278-14" x1="124.37" y1="-111.84" x2="124.37" y2="-31.93" xlink:href="#Degradado_sin_nombre_278"/><linearGradient id="Degradado_sin_nombre_278-15" x1="140.78" y1="-56.02" x2="140.78" y2="21.71" xlink:href="#Degradado_sin_nombre_278"/><linearGradient id="Degradado_sin_nombre_15" x1="90.44" y1="40.99" x2="90.44" y2="151.4" gradientUnits="userSpaceOnUse"><stop offset="0.2" stop-color="#26804e"/><stop offset="0.39" stop-color="#a7cf74"/><stop offset="0.55" stop-color="#5dbbd0"/><stop offset="0.72" stop-color="#2f4ea1"/></linearGradient><linearGradient id="Degradado_sin_nombre_15-2" x1="70.53" y1="40.99" x2="70.53" y2="151.4" xlink:href="#Degradado_sin_nombre_15"/><linearGradient id="Degradado_sin_nombre_15-3" x1="55.95" y1="40.99" x2="55.95" y2="151.4" xlink:href="#Degradado_sin_nombre_15"/><linearGradient id="Degradado_sin_nombre_15-4" x1="50.61" y1="40.99" x2="50.61" y2="151.4" xlink:href="#Degradado_sin_nombre_15"/><linearGradient id="Degradado_sin_nombre_15-8" x1="110.36" y1="40.99" x2="110.36" y2="151.4" xlink:href="#Degradado_sin_nombre_15"/><linearGradient id="Degradado_sin_nombre_15-9" x1="124.93" y1="40.99" x2="124.93" y2="151.4" xlink:href="#Degradado_sin_nombre_15"/><linearGradient id="Degradado_sin_nombre_15-10" x1="130.27" y1="40.99" x2="130.27" y2="151.4" xlink:href="#Degradado_sin_nombre_15"/></defs><title>NuevoLogoFOK</title><text class="cls-1" transform="translate(163.38 58.5) scale(1.26 1)">Focus On</text><path class="cls-2" d="M168.63,142.9V74.82h17.7v25.77h1.26c17.41,0,16.54-13,16.54-25.77H222c0,13.91.38,26.75-13.14,35.4l18.48,30v2.72H208l-15-26.35a40.29,40.29,0,0,1-6.71.38v26Z"/><path class="cls-2" d="M298.32,142.9H272.65V74.82h25.67C342.68,75,342.68,142.71,298.32,142.9Zm-8.26-15.85h8.26c21.69,0,21.69-36.38,0-36.38h-8.26Z"/><path class="cls-2" d="M375.17,122.87c0-4.77-5.64-5.84-12.45-6.23-14.78-1.07-24.51-6.12-24.7-20.91-.59-29.37,52.32-29.37,51.93,0H373.42c0-9-18.29-8.27-18.87-.19-.39,5.15,4.67,6.22,10.8,6.9,13.52,1.46,26.74,3.5,26.74,20.52,0,28.6-55.44,29.09-55-.87h16.83C353.87,130.75,375.17,130.84,375.17,122.87Z"/><rect class="cls-2" x="239.17" y="74.82" width="17.74" height="68.08"/><circle class="cls-3" cx="78.59" cy="141.53" r="4.25"/><circle class="cls-4" cx="97.98" cy="29.31" r="3.64"/><circle class="cls-5" cx="78" cy="31.08" r="4.25"/><circle class="cls-6" cx="59.69" cy="37.85" r="5.1"/><circle class="cls-7" cx="44.81" cy="50.47" r="5.53"/><circle class="cls-8" cx="35.14" cy="67.42" r="6.16"/><circle class="cls-9" cx="30.49" cy="86.53" r="7.37"/><circle class="cls-10" cx="35.33" cy="105.85" r="6.16"/><circle class="cls-11" cx="45.18" cy="122.7" r="5.53"/><circle class="cls-12" cx="60.19" cy="135.16" r="5.1"/><circle class="cls-13" cx="98.07" cy="141.43" r="3.54"/><circle class="cls-14" cx="131.25" cy="122.26" r="3.12"/><circle class="cls-15" cx="132.29" cy="48.89" r="3.2"/><circle class="cls-16" cx="116.86" cy="36.08" r="3.2"/><circle class="cls-17" cx="117.19" cy="134.78" r="3.12"/><circle class="cls-18" cx="90.44" cy="46.28" r="3.54"/><circle class="cls-19" cx="70.53" cy="51.62" r="3.12"/><circle class="cls-20" cx="55.95" cy="66.19" r="3.12"/><circle class="cls-21" cx="50.61" cy="86.11" r="2.69"/><circle class="cls-20" cx="55.95" cy="106.02" r="3.12"/><circle class="cls-19" cx="70.53" cy="120.6" r="3.12"/><circle class="cls-18" cx="90.44" cy="125.94" r="3.54"/><circle class="cls-22" cx="110.36" cy="120.6" r="4.53"/><circle class="cls-23" cx="124.93" cy="106.02" r="5.53"/><circle class="cls-24" cx="130.27" cy="86.11" r="6.16"/><circle class="cls-23" cx="124.93" cy="66.19" r="5.53"/><circle class="cls-22" cx="110.36" cy="51.62" r="4.53"/></svg>