<svg id="Capa_1" data-name="Capa 1" xmlns="http://www.w3.org/2000/svg" xmlns:xlink="http://www.w3.org/1999/xlink" viewBox="0 0 193.5 199.93"><defs><style>.cls-1{fill:url(#Degradado_sin_nombre_278);}.cls-2{fill:url(#Degradado_sin_nombre_278-2);}.cls-3{fill:url(#Degradado_sin_nombre_278-3);}.cls-4{fill:url(#Degradado_sin_nombre_278-4);}.cls-5{fill:url(#Degradado_sin_nombre_278-5);}.cls-6{fill:url(#Degradado_sin_nombre_278-6);}.cls-7{fill:url(#Degradado_sin_nombre_278-7);}.cls-8{fill:url(#Degradado_sin_nombre_278-8);}.cls-9{fill:url(#Degradado_sin_nombre_278-9);}.cls-10{fill:url(#Degradado_sin_nombre_278-10);}.cls-11{fill:url(#Degradado_sin_nombre_278-11);}.cls-12{fill:url(#Degradado_sin_nombre_278-12);}.cls-13{fill:url(#Degradado_sin_nombre_278-13);}.cls-14{fill:url(#Degradado_sin_nombre_278-14);}.cls-15{fill:url(#Degradado_sin_nombre_278-15);}.cls-16{fill:url(#Degradado_sin_nombre_15);}.cls-17{fill:url(#Degradado_sin_nombre_15-2);}.cls-18{fill:url(#Degradado_sin_nombre_15-3);}.cls-19{fill:url(#Degradado_sin_nombre_15-4);}.cls-20{fill:url(#Degradado_sin_nombre_15-8);}.cls-21{fill:url(#Degradado_sin_nombre_15-9);}.cls-22{fill:url(#Degradado_sin_nombre_15-10);}</style><linearGradient id="Degradado_sin_nombre_278" x1="118.84" y1="-141.32" x2="118.84" y2="23.48" gradientTransform="translate(-28.62 189.62) rotate(9.38)" gradientUnits="userSpaceOnUse"><stop offset="0" stop-color="#f11281"/><stop offset="0.34" stop-color="#ec6ea8"/><stop offset="0.68" stop-color="#fad34d"/><stop offset="1" stop-color="#f67434"/></linearGradient><linearGradient id="Degradado_sin_nombre_278-2" x1="120.15" y1="-212.83" x2="120.15" y2="-71.67" xlink:href="#Degradado_sin_nombre_278"/><linearGradient id="Degradado_sin_nombre_278-3" x1="89.95" y1="-209.99" x2="89.95" y2="-45.17" xlink:href="#Degradado_sin_nombre_278"/><linearGradient id="Degradado_sin_nombre_278-4" x1="63.59" y1="-208.94" x2="63.59" y2="-11.17" xlink:href="#Degradado_sin_nombre_278"/><linearGradient id="Degradado_sin_nombre_278-5" x1="43.95" y1="-206.18" x2="43.95" y2="8.1" xlink:href="#Degradado_sin_nombre_278"/><linearGradient id="Degradado_sin_nombre_278-6" x1="33.41" y1="-207.92" x2="33.41" y2="30.69" xlink:href="#Degradado_sin_nombre_278"/><linearGradient id="Degradado_sin_nombre_278-7" x1="31.12" y1="-224.53" x2="31.12" y2="61.05" xlink:href="#Degradado_sin_nombre_278"/><linearGradient id="Degradado_sin_nombre_278-8" x1="43.44" y1="-199.61" x2="43.44" y2="39.01" xlink:href="#Degradado_sin_nombre_278"/><linearGradient id="Degradado_sin_nombre_278-9" x1="62.81" y1="-180.85" x2="62.81" y2="33.42" xlink:href="#Degradado_sin_nombre_278"/><linearGradient id="Degradado_sin_nombre_278-10" x1="89" y1="-165.96" x2="89" y2="31.82" xlink:href="#Degradado_sin_nombre_278"/><linearGradient id="Degradado_sin_nombre_278-11" x1="148.7" y1="-124.4" x2="148.7" y2="12.95" xlink:href="#Degradado_sin_nombre_278"/><linearGradient id="Degradado_sin_nombre_278-12" x1="194.75" y1="-134.23" x2="194.75" y2="-13.35" xlink:href="#Degradado_sin_nombre_278"/><linearGradient id="Degradado_sin_nombre_278-13" x1="177.74" y1="-199.4" x2="177.74" y2="-75.16" xlink:href="#Degradado_sin_nombre_278"/><linearGradient id="Degradado_sin_nombre_278-14" x1="150.83" y1="-208.3" x2="150.83" y2="-84.06" xlink:href="#Degradado_sin_nombre_278"/><linearGradient id="Degradado_sin_nombre_278-15" x1="176.35" y1="-121.51" x2="176.35" y2="-0.66" xlink:href="#Degradado_sin_nombre_278"/><linearGradient id="Degradado_sin_nombre_15" x1="111.03" y1="28.65" x2="111.03" y2="200.32" gradientUnits="userSpaceOnUse"><stop offset="0.2" stop-color="#26804e"/><stop offset="0.39" stop-color="#a7cf74"/><stop offset="0.55" stop-color="#5dbbd0"/><stop offset="0.72" stop-color="#2f4ea1"/></linearGradient><linearGradient id="Degradado_sin_nombre_15-2" x1="80.07" y1="28.65" x2="80.07" y2="200.32" xlink:href="#Degradado_sin_nombre_15"/><linearGradient id="Degradado_sin_nombre_15-3" x1="57.4" y1="28.65" x2="57.4" y2="200.32" xlink:href="#Degradado_sin_nombre_15"/><linearGradient id="Degradado_sin_nombre_15-4" x1="49.11" y1="28.65" x2="49.11" y2="200.32" xlink:href="#Degradado_sin_nombre_15"/><linearGradient id="Degradado_sin_nombre_15-8" x1="141.99" y1="28.65" x2="141.99" y2="200.32" xlink:href="#Degradado_sin_nombre_15"/><linearGradient id="Degradado_sin_nombre_15-9" x1="164.66" y1="28.65" x2="164.66" y2="200.32" xlink:href="#Degradado_sin_nombre_15"/><linearGradient id="Degradado_sin_nombre_15-10" x1="172.95" y1="28.65" x2="172.95" y2="200.32" xlink:href="#Degradado_sin_nombre_15"/></defs><title>LogoSolo</title><circle class="cls-1" cx="92.6" cy="184.97" r="6.61"/><circle class="cls-2" cx="122.75" cy="10.5" r="5.66"/><circle class="cls-3" cx="91.68" cy="13.25" r="6.61"/><circle class="cls-4" cx="63.22" cy="23.77" r="7.93"/><circle class="cls-5" cx="40.08" cy="43.39" r="8.59"/><circle class="cls-6" cx="25.05" cy="69.74" r="9.57"/><circle class="cls-7" cx="17.81" cy="99.46" r="11.45"/><circle class="cls-8" cx="25.35" cy="129.49" r="9.57"/><circle class="cls-9" cx="40.65" cy="155.69" r="8.59"/><circle class="cls-10" cx="63.99" cy="175.07" r="7.93"/><circle class="cls-11" cx="122.89" cy="184.82" r="5.51"/><circle class="cls-12" cx="174.48" cy="155.01" r="4.85"/><circle class="cls-13" cx="176.09" cy="40.94" r="4.98"/><circle class="cls-14" cx="152.1" cy="21.02" r="4.98"/><circle class="cls-15" cx="152.62" cy="174.48" r="4.85"/><circle class="cls-16" cx="111.03" cy="36.88" r="5.51"/><circle class="cls-17" cx="80.07" cy="45.17" r="4.85"/><circle class="cls-18" cx="57.4" cy="67.84" r="4.85"/><circle class="cls-19" cx="49.11" cy="98.8" r="4.19"/><circle class="cls-18" cx="57.4" cy="129.76" r="4.85"/><circle class="cls-17" cx="80.07" cy="152.43" r="4.85"/><circle class="cls-16" cx="111.03" cy="160.72" r="5.51"/><circle class="cls-20" cx="141.99" cy="152.43" r="7.05"/><circle class="cls-21" cx="164.66" cy="129.76" r="8.59"/><circle class="cls-22" cx="172.95" cy="98.8" r="9.57"/><circle class="cls-21" cx="164.66" cy="67.84" r="8.59"/><circle class="cls-20" cx="141.99" cy="45.17" r="7.05"/></svg>