<svg id="Capa_1" data-name="Capa 1" xmlns="http://www.w3.org/2000/svg" xmlns:xlink="http://www.w3.org/1999/xlink" viewBox="0 0 6496 2136"><defs><style>.cls-1{fill:#f4f1f1;}.cls-2{fill:#1d763d;}.cls-3{font-size:350.82px;font-family:Aileron-UltraLight, Aileron;font-weight:100;}.cls-3,.cls-4{fill:#333332;}.cls-5{fill:url(#Degradado_sin_nombre_278);}.cls-6{fill:url(#Degradado_sin_nombre_278-2);}.cls-7{fill:url(#Degradado_sin_nombre_278-3);}.cls-8{fill:url(#Degradado_sin_nombre_278-4);}.cls-9{fill:url(#Degradado_sin_nombre_278-5);}.cls-10{fill:url(#Degradado_sin_nombre_278-6);}.cls-11{fill:url(#Degradado_sin_nombre_278-7);}.cls-12{fill:url(#Degradado_sin_nombre_278-8);}.cls-13{fill:url(#Degradado_sin_nombre_278-9);}.cls-14{fill:url(#Degradado_sin_nombre_278-10);}.cls-15{fill:url(#Degradado_sin_nombre_278-11);}.cls-16{fill:url(#Degradado_sin_nombre_278-12);}.cls-17{fill:url(#Degradado_sin_nombre_278-13);}.cls-18{fill:url(#Degradado_sin_nombre_278-14);}.cls-19{fill:url(#Degradado_sin_nombre_278-15);}.cls-20{fill:url(#Degradado_sin_nombre_15);}.cls-21{fill:url(#Degradado_sin_nombre_15-2);}.cls-22{fill:url(#Degradado_sin_nombre_15-3);}.cls-23{fill:url(#Degradado_sin_nombre_15-4);}.cls-24{fill:url(#Degradado_sin_nombre_15-8);}.cls-25{fill:url(#Degradado_sin_nombre_15-9);}.cls-26{fill:url(#Degradado_sin_nombre_15-10);}</style><linearGradient id="Degradado_sin_nombre_278" x1="2869.78" y1="1692.63" x2="2869.78" y2="2494.84" gradientTransform="translate(-206.97 -1185.17) rotate(9.38)" gradientUnits="userSpaceOnUse"><stop offset="0" stop-color="#be2f84"/><stop offset="0.34" stop-color="#d192b3"/><stop offset="0.68" stop-color="#f1d875"/><stop offset="1" stop-color="#d69059"/></linearGradient><linearGradient id="Degradado_sin_nombre_278-2" x1="2876.14" y1="1344.54" x2="2876.14" y2="2031.68" xlink:href="#Degradado_sin_nombre_278"/><linearGradient id="Degradado_sin_nombre_278-3" x1="2729.12" y1="1358.35" x2="2729.12" y2="2160.65" xlink:href="#Degradado_sin_nombre_278"/><linearGradient id="Degradado_sin_nombre_278-4" x1="2600.8" y1="1363.48" x2="2600.8" y2="2326.14" xlink:href="#Degradado_sin_nombre_278"/><linearGradient id="Degradado_sin_nombre_278-5" x1="2505.22" y1="1376.89" x2="2505.22" y2="2419.98" xlink:href="#Degradado_sin_nombre_278"/><linearGradient id="Degradado_sin_nombre_278-6" x1="2453.9" y1="1368.4" x2="2453.9" y2="2529.95" xlink:href="#Degradado_sin_nombre_278"/><linearGradient id="Degradado_sin_nombre_278-7" x1="2442.74" y1="1287.58" x2="2442.74" y2="2677.7" xlink:href="#Degradado_sin_nombre_278"/><linearGradient id="Degradado_sin_nombre_278-8" x1="2502.76" y1="1408.88" x2="2502.76" y2="2570.42" xlink:href="#Degradado_sin_nombre_278"/><linearGradient id="Degradado_sin_nombre_278-9" x1="2597.03" y1="1500.18" x2="2597.03" y2="2543.22" xlink:href="#Degradado_sin_nombre_278"/><linearGradient id="Degradado_sin_nombre_278-10" x1="2724.49" y1="1572.67" x2="2724.49" y2="2535.41" xlink:href="#Degradado_sin_nombre_278"/><linearGradient id="Degradado_sin_nombre_278-11" x1="3015.1" y1="1774.99" x2="3015.1" y2="2443.57" xlink:href="#Degradado_sin_nombre_278"/><linearGradient id="Degradado_sin_nombre_278-12" x1="3239.26" y1="1727.12" x2="3239.26" y2="2315.53" xlink:href="#Degradado_sin_nombre_278"/><linearGradient id="Degradado_sin_nombre_278-13" x1="3156.49" y1="1409.9" x2="3156.49" y2="2014.68" xlink:href="#Degradado_sin_nombre_278"/><linearGradient id="Degradado_sin_nombre_278-14" x1="3025.47" y1="1366.6" x2="3025.47" y2="1971.34" xlink:href="#Degradado_sin_nombre_278"/><linearGradient id="Degradado_sin_nombre_278-15" x1="3149.71" y1="1789.04" x2="3149.71" y2="2377.33" xlink:href="#Degradado_sin_nombre_278"/><linearGradient id="Degradado_sin_nombre_15" x1="2345.51" y1="753.39" x2="2345.51" y2="1589.01" gradientUnits="userSpaceOnUse"><stop offset="0.2" stop-color="#4f8f6c"/><stop offset="0.39" stop-color="#becf93"/><stop offset="0.55" stop-color="#85bde4"/><stop offset="0.72" stop-color="#486bab"/></linearGradient><linearGradient id="Degradado_sin_nombre_15-2" x1="2194.8" y1="753.39" x2="2194.8" y2="1589.01" xlink:href="#Degradado_sin_nombre_15"/><linearGradient id="Degradado_sin_nombre_15-3" x1="2084.47" y1="753.39" x2="2084.47" y2="1589.01" xlink:href="#Degradado_sin_nombre_15"/><linearGradient id="Degradado_sin_nombre_15-4" x1="2044.08" y1="753.39" x2="2044.08" y2="1589.01" xlink:href="#Degradado_sin_nombre_15"/><linearGradient id="Degradado_sin_nombre_15-8" x1="2496.23" y1="753.39" x2="2496.23" y2="1589.01" xlink:href="#Degradado_sin_nombre_15"/><linearGradient id="Degradado_sin_nombre_15-9" x1="2606.56" y1="753.39" x2="2606.56" y2="1589.01" xlink:href="#Degradado_sin_nombre_15"/><linearGradient id="Degradado_sin_nombre_15-10" x1="2646.95" y1="753.39" x2="2646.95" y2="1589.01" xlink:href="#Degradado_sin_nombre_15"/></defs><title>9</title><rect class="cls-1" width="6496" height="2136"/><circle class="cls-2" cx="6254.84" cy="1888.63" r="19.87"/><circle class="cls-2" cx="6048.17" cy="1888.63" r="19.87"/><circle class="cls-2" cx="5837.52" cy="1888.63" r="19.87"/><circle class="cls-2" cx="5626.88" cy="1888.63" r="19.87"/><circle class="cls-2" cx="5432.14" cy="1888.63" r="19.87"/><circle class="cls-2" cx="5229.44" cy="1888.63" r="19.87"/><circle class="cls-2" cx="5014.83" cy="1888.63" r="19.87"/><circle class="cls-2" cx="4808.16" cy="1888.63" r="19.87"/><circle class="cls-2" cx="6254.84" cy="1717.73" r="19.87"/><circle class="cls-2" cx="6048.17" cy="1717.73" r="19.87"/><circle class="cls-2" cx="5837.52" cy="1717.73" r="19.87"/><circle class="cls-2" cx="5626.88" cy="1717.73" r="19.87"/><circle class="cls-2" cx="5432.14" cy="1717.73" r="19.87"/><circle class="cls-2" cx="5229.44" cy="1717.73" r="19.87"/><circle class="cls-2" cx="5014.83" cy="1717.73" r="19.87"/><circle class="cls-2" cx="6254.84" cy="1515.04" r="19.87"/><circle class="cls-2" cx="6048.17" cy="1515.04" r="19.87"/><circle class="cls-2" cx="5837.52" cy="1515.04" r="19.87"/><circle class="cls-2" cx="5626.88" cy="1515.04" r="19.87"/><circle class="cls-2" cx="5432.14" cy="1515.04" r="19.87"/><circle class="cls-2" cx="5229.44" cy="1515.04" r="19.87"/><circle class="cls-2" cx="6254.84" cy="1312.34" r="19.87"/><circle class="cls-2" cx="6048.17" cy="1312.34" r="19.87"/><circle class="cls-2" cx="5837.52" cy="1312.34" r="19.87"/><circle class="cls-2" cx="5626.88" cy="1312.34" r="19.87"/><circle class="cls-2" cx="5432.14" cy="1312.34" r="19.87"/><circle class="cls-2" cx="6254.84" cy="1109.65" r="19.87"/><circle class="cls-2" cx="6048.17" cy="1109.65" r="19.87"/><circle class="cls-2" cx="5837.52" cy="1109.65" r="19.87"/><circle class="cls-2" cx="5626.88" cy="1109.65" r="19.87"/><circle class="cls-2" cx="6254.84" cy="906.95" r="19.87"/><circle class="cls-2" cx="6048.17" cy="906.95" r="19.87"/><circle class="cls-2" cx="5837.52" cy="906.95" r="19.87"/><circle class="cls-2" cx="6254.84" cy="704.26" r="19.87"/><circle class="cls-2" cx="6048.17" cy="704.26" r="19.87"/><circle class="cls-2" cx="6254.84" cy="501.57" r="19.87"/><circle class="cls-2" cx="6254.84" cy="298.87" r="19.87"/><circle class="cls-2" cx="6048.17" cy="501.57" r="19.87"/><circle class="cls-2" cx="5837.52" cy="704.26" r="19.87"/><circle class="cls-2" cx="5626.88" cy="906.95" r="19.87"/><circle class="cls-2" cx="5432.14" cy="1109.65" r="19.87"/><circle class="cls-2" cx="5229.44" cy="1312.34" r="19.87"/><circle class="cls-2" cx="5014.83" cy="1515.04" r="19.87"/><circle class="cls-2" cx="4808.16" cy="1717.73" r="19.87"/><circle class="cls-2" cx="4633.28" cy="1888.63" r="19.87"/><circle class="cls-2" cx="242.61" cy="279.21" r="20.21"/><circle class="cls-2" cx="452.83" cy="279.21" r="20.21"/><circle class="cls-2" cx="667.09" cy="279.21" r="20.21"/><circle class="cls-2" cx="881.36" cy="279.21" r="20.21"/><circle class="cls-2" cx="1079.45" cy="279.21" r="20.21"/><circle class="cls-2" cx="1285.62" cy="279.21" r="20.21"/><circle class="cls-2" cx="1503.93" cy="279.21" r="20.21"/><circle class="cls-2" cx="1714.15" cy="279.21" r="20.21"/><circle class="cls-2" cx="242.61" cy="453.05" r="20.21"/><circle class="cls-2" cx="452.83" cy="453.05" r="20.21"/><circle class="cls-2" cx="667.09" cy="453.05" r="20.21"/><circle class="cls-2" cx="881.36" cy="453.05" r="20.21"/><circle class="cls-2" cx="1079.45" cy="453.05" r="20.21"/><circle class="cls-2" cx="1285.62" cy="453.05" r="20.21"/><circle class="cls-2" cx="1503.93" cy="453.05" r="20.21"/><circle class="cls-2" cx="242.61" cy="659.23" r="20.21"/><circle class="cls-2" cx="452.83" cy="659.23" r="20.21"/><circle class="cls-2" cx="667.09" cy="659.23" r="20.21"/><circle class="cls-2" cx="881.36" cy="659.23" r="20.21"/><circle class="cls-2" cx="1079.45" cy="659.23" r="20.21"/><circle class="cls-2" cx="1285.62" cy="659.23" r="20.21"/><circle class="cls-2" cx="242.61" cy="865.4" r="20.21"/><circle class="cls-2" cx="452.83" cy="865.4" r="20.21"/><circle class="cls-2" cx="667.09" cy="865.4" r="20.21"/><circle class="cls-2" cx="881.36" cy="865.4" r="20.21"/><circle class="cls-2" cx="1079.45" cy="865.4" r="20.21"/><circle class="cls-2" cx="242.61" cy="1071.58" r="20.21"/><circle class="cls-2" cx="452.83" cy="1071.58" r="20.21"/><circle class="cls-2" cx="667.09" cy="1071.58" r="20.21"/><circle class="cls-2" cx="881.36" cy="1071.58" r="20.21"/><circle class="cls-2" cx="242.61" cy="1277.76" r="20.21"/><circle class="cls-2" cx="452.83" cy="1277.76" r="20.21"/><circle class="cls-2" cx="667.09" cy="1277.76" r="20.21"/><circle class="cls-2" cx="242.61" cy="1483.93" r="20.21"/><circle class="cls-2" cx="452.83" cy="1483.93" r="20.21"/><circle class="cls-2" cx="242.61" cy="1690.11" r="20.21"/><circle class="cls-2" cx="242.61" cy="1896.29" r="20.21"/><circle class="cls-2" cx="452.83" cy="1690.11" r="20.21"/><circle class="cls-2" cx="667.09" cy="1483.93" r="20.21"/><circle class="cls-2" cx="881.36" cy="1277.76" r="20.21"/><circle class="cls-2" cx="1079.45" cy="1071.58" r="20.21"/><circle class="cls-2" cx="1285.62" cy="865.4" r="20.21"/><circle class="cls-2" cx="1503.93" cy="659.23" r="20.21"/><circle class="cls-2" cx="1714.15" cy="453.05" r="20.21"/><circle class="cls-2" cx="1892.03" cy="279.21" r="20.21"/><text class="cls-3" transform="translate(2897.51 885.94) scale(1.26 1)">Focus On</text><path class="cls-4" d="M2937.26,1524.71V1009.43h134V1204.5h9.57c131.77,0,125.14-98.64,125.14-195.07h135.45c0,105.26,2.94,202.43-99.38,268l139.86,226.72v20.61H3235.38L3122,1325.22c-17.67,3-33.87,3-50.8,3v196.54Z"/><path class="cls-4" d="M3918.85,1524.71H3724.52V1009.43h194.33C4254.52,1010.9,4254.52,1523.24,3918.85,1524.71Zm-62.57-120h62.57c164.16,0,164.16-275.3,0-275.3h-62.57Z"/><path class="cls-4" d="M4500.46,1373.07c0-36.07-42.7-44.16-94.23-47.11-111.89-8.1-185.5-46.37-187-158.27-4.42-222.3,396-222.3,393.08,0H4487.2c0-68.45-138.39-62.57-142.81-1.47-2.94,39,35.34,47.11,81.72,52.27,102.32,11,202.43,26.5,202.43,155.32,0,216.42-419.59,220.1-416.64-6.63h127.35C4339.25,1432.7,4500.46,1433.43,4500.46,1373.07Z"/><rect class="cls-4" x="3471.18" y="1009.43" width="134.24" height="515.28"/><circle class="cls-5" cx="2255.82" cy="1514.33" r="32.17"/><circle class="cls-6" cx="2402.54" cy="665.02" r="27.56"/><circle class="cls-7" cx="2251.32" cy="678.41" r="32.18"/><circle class="cls-8" cx="2112.8" cy="729.62" r="38.61"/><circle class="cls-9" cx="2000.15" cy="825.12" r="41.83"/><circle class="cls-10" cx="1926.96" cy="953.39" r="46.59"/><circle class="cls-11" cx="1891.75" cy="1098.05" r="55.75"/><circle class="cls-12" cx="1928.43" cy="1244.26" r="46.59"/><circle class="cls-13" cx="2002.92" cy="1371.78" r="41.83"/><circle class="cls-14" cx="2116.52" cy="1466.13" r="38.61"/><circle class="cls-15" cx="2403.23" cy="1513.59" r="26.81"/><circle class="cls-16" cx="2654.4" cy="1368.48" r="23.6"/><circle class="cls-17" cx="2662.22" cy="813.2" r="24.26"/><circle class="cls-18" cx="2545.45" cy="716.22" r="24.25"/><circle class="cls-19" cx="2547.99" cy="1463.23" r="23.59"/><circle class="cls-20" cx="2345.51" cy="793.42" r="26.82"/><circle class="cls-21" cx="2194.8" cy="833.81" r="23.6"/><circle class="cls-22" cx="2084.47" cy="944.14" r="23.6"/><circle class="cls-23" cx="2044.08" cy="1094.86" r="20.38"/><circle class="cls-22" cx="2084.47" cy="1245.57" r="23.6"/><circle class="cls-21" cx="2194.8" cy="1355.91" r="23.6"/><circle class="cls-20" cx="2345.51" cy="1396.29" r="26.82"/><circle class="cls-24" cx="2496.23" cy="1355.91" r="34.32"/><circle class="cls-25" cx="2606.56" cy="1245.57" r="41.83"/><circle class="cls-26" cx="2646.95" cy="1094.86" r="46.6"/><circle class="cls-25" cx="2606.56" cy="944.14" r="41.83"/><circle class="cls-24" cx="2496.23" cy="833.81" r="34.32"/></svg>