<svg id="Capa_1" data-name="Capa 1" xmlns="http://www.w3.org/2000/svg" viewBox="0 0 6496 2136"><defs><style>.cls-1{fill:#f4f1f1;}.cls-2{fill:#1d763d;}.cls-3{font-size:115.64px;fill:#1d191d;font-family:QuicksandBold-Regular, Quicksand;}.cls-4{letter-spacing:-0.02em;}.cls-5{letter-spacing:-0.06em;}.cls-6{letter-spacing:-0.04em;}.cls-7{letter-spacing:0em;}.cls-8{letter-spacing:-0.03em;}.cls-9{letter-spacing:-0.02em;}.cls-10{letter-spacing:-0.01em;}.cls-11{letter-spacing:-0.05em;}.cls-12{letter-spacing:0em;}.cls-13{letter-spacing:-0.07em;}.cls-14{letter-spacing:-0.08em;}.cls-15{letter-spacing:0em;}.cls-16{letter-spacing:0em;}.cls-17{letter-spacing:-0.01em;}.cls-18{letter-spacing:0em;}.cls-19{letter-spacing:-0.03em;}.cls-20{letter-spacing:-0.05em;}.cls-21{letter-spacing:-0.02em;}.cls-22{letter-spacing:0.02em;}.cls-23{letter-spacing:-0.06em;}.cls-24{letter-spacing:-0.1em;}.cls-25{letter-spacing:-0.09em;}.cls-26{letter-spacing:-0.05em;}.cls-27{letter-spacing:-0.03em;}.cls-28{letter-spacing:-0.03em;}.cls-29{letter-spacing:-0.05em;}.cls-30{letter-spacing:-0.04em;}.cls-31{letter-spacing:-0.03em;}</style></defs><title>8</title><rect class="cls-1" width="6496" height="2136"/><circle class="cls-2" cx="6254.84" cy="1888.63" r="19.87"/><circle class="cls-2" cx="6048.17" cy="1888.63" r="19.87"/><circle class="cls-2" cx="5837.52" cy="1888.63" r="19.87"/><circle class="cls-2" cx="5626.88" cy="1888.63" r="19.87"/><circle class="cls-2" cx="5432.14" cy="1888.63" r="19.87"/><circle class="cls-2" cx="5229.44" cy="1888.63" r="19.87"/><circle class="cls-2" cx="5014.83" cy="1888.63" r="19.87"/><circle class="cls-2" cx="4808.16" cy="1888.63" r="19.87"/><circle class="cls-2" cx="6254.84" cy="1717.73" r="19.87"/><circle class="cls-2" cx="6048.17" cy="1717.73" r="19.87"/><circle class="cls-2" cx="5837.52" cy="1717.73" r="19.87"/><circle class="cls-2" cx="5626.88" cy="1717.73" r="19.87"/><circle class="cls-2" cx="5432.14" cy="1717.73" r="19.87"/><circle class="cls-2" cx="5229.44" cy="1717.73" r="19.87"/><circle class="cls-2" cx="5014.83" cy="1717.73" r="19.87"/><circle class="cls-2" cx="6254.84" cy="1515.04" r="19.87"/><circle class="cls-2" cx="6048.17" cy="1515.04" r="19.87"/><circle class="cls-2" cx="5837.52" cy="1515.04" r="19.87"/><circle class="cls-2" cx="5626.88" cy="1515.04" r="19.87"/><circle class="cls-2" cx="5432.14" cy="1515.04" r="19.87"/><circle class="cls-2" cx="5229.44" cy="1515.04" r="19.87"/><circle class="cls-2" cx="6254.84" cy="1312.34" r="19.87"/><circle class="cls-2" cx="6048.17" cy="1312.34" r="19.87"/><circle class="cls-2" cx="5837.52" cy="1312.34" r="19.87"/><circle class="cls-2" cx="5626.88" cy="1312.34" r="19.87"/><circle class="cls-2" cx="5432.14" cy="1312.34" r="19.87"/><circle class="cls-2" cx="6254.84" cy="1109.65" r="19.87"/><circle class="cls-2" cx="6048.17" cy="1109.65" r="19.87"/><circle class="cls-2" cx="5837.52" cy="1109.65" r="19.87"/><circle class="cls-2" cx="5626.88" cy="1109.65" r="19.87"/><circle class="cls-2" cx="6254.84" cy="906.95" r="19.87"/><circle class="cls-2" cx="6048.17" cy="906.95" r="19.87"/><circle class="cls-2" cx="5837.52" cy="906.95" r="19.87"/><circle class="cls-2" cx="6254.84" cy="704.26" r="19.87"/><circle class="cls-2" cx="6048.17" cy="704.26" r="19.87"/><circle class="cls-2" cx="6254.84" cy="501.57" r="19.87"/><circle class="cls-2" cx="6254.84" cy="298.87" r="19.87"/><circle class="cls-2" cx="6048.17" cy="501.57" r="19.87"/><circle class="cls-2" cx="5837.52" cy="704.26" r="19.87"/><circle class="cls-2" cx="5626.88" cy="906.95" r="19.87"/><circle class="cls-2" cx="5432.14" cy="1109.65" r="19.87"/><circle class="cls-2" cx="5229.44" cy="1312.34" r="19.87"/><circle class="cls-2" cx="5014.83" cy="1515.04" r="19.87"/><circle class="cls-2" cx="4808.16" cy="1717.73" r="19.87"/><circle class="cls-2" cx="4633.28" cy="1888.63" r="19.87"/><circle class="cls-2" cx="242.61" cy="279.21" r="20.21"/><circle class="cls-2" cx="452.83" cy="279.21" r="20.21"/><circle class="cls-2" cx="667.09" cy="279.21" r="20.21"/><circle class="cls-2" cx="881.36" cy="279.21" r="20.21"/><circle class="cls-2" cx="1079.45" cy="279.21" r="20.21"/><circle class="cls-2" cx="1285.62" cy="279.21" r="20.21"/><circle class="cls-2" cx="1503.93" cy="279.21" r="20.21"/><circle class="cls-2" cx="1714.15" cy="279.21" r="20.21"/><circle class="cls-2" cx="242.61" cy="453.05" r="20.21"/><circle class="cls-2" cx="452.83" cy="453.05" r="20.21"/><circle class="cls-2" cx="667.09" cy="453.05" r="20.21"/><circle class="cls-2" cx="881.36" cy="453.05" r="20.21"/><circle class="cls-2" cx="1079.45" cy="453.05" r="20.21"/><circle class="cls-2" cx="1285.62" cy="453.05" r="20.21"/><circle class="cls-2" cx="1503.93" cy="453.05" r="20.21"/><circle class="cls-2" cx="242.61" cy="659.23" r="20.21"/><circle class="cls-2" cx="452.83" cy="659.23" r="20.21"/><circle class="cls-2" cx="667.09" cy="659.23" r="20.21"/><circle class="cls-2" cx="881.36" cy="659.23" r="20.21"/><circle class="cls-2" cx="1079.45" cy="659.23" r="20.21"/><circle class="cls-2" cx="1285.62" cy="659.23" r="20.21"/><circle class="cls-2" cx="242.61" cy="865.4" r="20.21"/><circle class="cls-2" cx="452.83" cy="865.4" r="20.21"/><circle class="cls-2" cx="667.09" cy="865.4" r="20.21"/><circle class="cls-2" cx="881.36" cy="865.4" r="20.21"/><circle class="cls-2" cx="1079.45" cy="865.4" r="20.21"/><circle class="cls-2" cx="242.61" cy="1071.58" r="20.21"/><circle class="cls-2" cx="452.83" cy="1071.58" r="20.21"/><circle class="cls-2" cx="667.09" cy="1071.58" r="20.21"/><circle class="cls-2" cx="881.36" cy="1071.58" r="20.21"/><circle class="cls-2" cx="242.61" cy="1277.76" r="20.21"/><circle class="cls-2" cx="452.83" cy="1277.76" r="20.21"/><circle class="cls-2" cx="667.09" cy="1277.76" r="20.21"/><circle class="cls-2" cx="242.61" cy="1483.93" r="20.21"/><circle class="cls-2" cx="452.83" cy="1483.93" r="20.21"/><circle class="cls-2" cx="242.61" cy="1690.11" r="20.21"/><circle class="cls-2" cx="242.61" cy="1896.29" r="20.21"/><circle class="cls-2" cx="452.83" cy="1690.11" r="20.21"/><circle class="cls-2" cx="667.09" cy="1483.93" r="20.21"/><circle class="cls-2" cx="881.36" cy="1277.76" r="20.21"/><circle class="cls-2" cx="1079.45" cy="1071.58" r="20.21"/><circle class="cls-2" cx="1285.62" cy="865.4" r="20.21"/><circle class="cls-2" cx="1503.93" cy="659.23" r="20.21"/><circle class="cls-2" cx="1714.15" cy="453.05" r="20.21"/><circle class="cls-2" cx="1892.03" cy="279.21" r="20.21"/><text class="cls-3" transform="translate(1938.68 759.36)">IN<tspan class="cls-4" x="124.43" y="0">F</tspan><tspan x="192.08" y="0">OR</tspan><tspan class="cls-5" x="362.65" y="0">M</tspan><tspan class="cls-6" x="452.73" y="0">A</tspan><tspan class="cls-7" x="522.81" y="0">CI</tspan><tspan class="cls-8" x="647.24" y="0">O</tspan><tspan class="cls-7" x="742.52" y="0">N, </tspan><tspan class="cls-9" x="892.97" y="0">A</tspan><tspan x="965.71" y="0">SESORAMIE</tspan><tspan class="cls-10" x="1635.25" y="0">N</tspan><tspan class="cls-11" x="1723.26" y="0">T</tspan><tspan x="1791.83" y="0">O Y SOPO</tspan><tspan class="cls-4" x="2370.48" y="0">R</tspan><tspan x="2440.45" y="0">TE </tspan><tspan x="131.43" y="138.77">PRESENCIAL Y </tspan><tspan class="cls-8" x="978.02" y="138.77">O</tspan><tspan class="cls-7" x="1073.3" y="138.77">N</tspan><tspan class="cls-12" x="1162.46" y="138.77">L</tspan><tspan x="1228.14" y="138.77">I</tspan><tspan class="cls-5" x="1263.41" y="138.77">N</tspan><tspan x="1345.06" y="138.77">E </tspan><tspan class="cls-13" x="1448.32" y="138.77">P</tspan><tspan x="1507.64" y="138.77">ARA </tspan><tspan class="cls-14" x="1764.01" y="138.77">F</tspan><tspan class="cls-15" x="1824.73" y="138.77">AMI</tspan><tspan class="cls-16" x="2032.3" y="138.77">L</tspan><tspan class="cls-15" x="2097.98" y="138.77">IARES, </tspan><tspan x="-94.24" y="277.54">P</tspan><tspan class="cls-9" x="-26.83" y="277.54">R</tspan><tspan x="43.48" y="277.54">OFESI</tspan><tspan class="cls-8" x="392.71" y="277.54">O</tspan><tspan class="cls-7" x="488" y="277.54">NALES, </tspan><tspan class="cls-5" x="923.96" y="277.54">M</tspan><tspan x="1014.04" y="277.54">AE</tspan><tspan class="cls-17" x="1157.32" y="277.54">S</tspan><tspan x="1232.71" y="277.54">T</tspan><tspan class="cls-9" x="1307.65" y="277.54">R</tspan><tspan class="cls-18" x="1377.96" y="277.54">O</tspan><tspan x="1475.67" y="277.54">S Y E</tspan><tspan class="cls-17" x="1760.6" y="277.54">S</tspan><tspan class="cls-15" x="1836" y="277.54">T</tspan><tspan class="cls-19" x="1910.93" y="277.54">U</tspan><tspan class="cls-20" x="2001.59" y="277.54">D</tspan><tspan x="2078.96" y="277.54">IA</tspan><tspan class="cls-10" x="2188.93" y="277.54">N</tspan><tspan class="cls-15" x="2276.93" y="277.54">TES </tspan><tspan class="cls-20" x="2532.26" y="277.54">D</tspan><tspan x="2609.63" y="277.54">E </tspan><tspan class="cls-21" x="-37.06" y="416.3">C</tspan><tspan x="50.36" y="416.3">ARR</tspan><tspan class="cls-22" x="269.61" y="416.3">E</tspan><tspan x="340.5" y="416.3">R</tspan><tspan class="cls-9" x="412.77" y="416.3">A</tspan><tspan x="485.51" y="416.3">S A FI</tspan><tspan class="cls-23" x="811.96" y="416.3">N</tspan><tspan x="893.6" y="416.3">ES AL TR</tspan><tspan class="cls-24" x="1395.7" y="416.3">A</tspan><tspan class="cls-25" x="1458.84" y="416.3">T</tspan><tspan class="cls-15" x="1522.79" y="416.3">AMIE</tspan><tspan class="cls-10" x="1798.94" y="416.3">N</tspan><tspan class="cls-11" x="1886.94" y="416.3">T</tspan><tspan class="cls-15" x="1955.51" y="416.3">O </tspan><tspan class="cls-26" x="2088.5" y="416.3">D</tspan><tspan x="2165.86" y="416.3">E </tspan><tspan class="cls-27" x="2269.12" y="416.3">N</tspan><tspan x="2354.24" y="416.3">IÑ</tspan><tspan class="cls-18" x="2480.86" y="416.3">O</tspan><tspan x="2578.58" y="416.3">S</tspan><tspan class="cls-4" x="-69.04" y="555.07">C</tspan><tspan class="cls-28" x="17.81" y="555.07">O</tspan><tspan x="113.1" y="555.07">N </tspan><tspan class="cls-29" x="236.95" y="555.07">D</tspan><tspan x="314.31" y="555.07">E</tspan><tspan class="cls-17" x="382.88" y="555.07">S</tspan><tspan x="458.28" y="555.07">AFI</tspan><tspan class="cls-18" x="638.22" y="555.07">O</tspan><tspan x="735.93" y="555.07">S SENSORIALES, </tspan><tspan class="cls-20" x="1712.38" y="555.07">D</tspan><tspan x="1789.75" y="555.07">E APRE</tspan><tspan class="cls-20" x="2175.98" y="555.07">ND</tspan><tspan x="2336.72" y="555.07">IZAJE,</tspan><tspan class="cls-4" x="310.95" y="693.84">C</tspan><tspan class="cls-28" x="397.8" y="693.84">O</tspan><tspan class="cls-29" x="493.09" y="693.84">N</tspan><tspan x="576.46" y="693.84">DUCT</tspan><tspan class="cls-20" x="917.83" y="693.84">U</tspan><tspan class="cls-7" x="1006.18" y="693.84">ALES Y E</tspan><tspan class="cls-30" x="1499.49" y="693.84">M</tspan><tspan class="cls-31" x="1591.89" y="693.84">O</tspan><tspan class="cls-15" x="1686.71" y="693.84">CI</tspan><tspan class="cls-8" x="1811.14" y="693.84">O</tspan><tspan x="1906.43" y="693.84">NALES.</tspan></text></svg>