<svg id="Capa_1" data-name="Capa 1" xmlns="http://www.w3.org/2000/svg" viewBox="0 0 6496 2136"><defs><style>.cls-1{fill:#f4f1f1;}.cls-2{fill:#1d763d;}.cls-3{font-size:115.64px;fill:#1d191d;font-family:QuicksandBold-Regular, Quicksand;}.cls-4{letter-spacing:-0.05em;}.cls-5{letter-spacing:0em;}.cls-6{letter-spacing:-0.02em;}.cls-7{letter-spacing:-0.03em;}.cls-8{letter-spacing:-0.01em;}.cls-9{letter-spacing:0em;}.cls-10{letter-spacing:-0.04em;}.cls-11{letter-spacing:-0.01em;}.cls-12{letter-spacing:0.02em;}.cls-13{letter-spacing:-0.02em;}.cls-14{letter-spacing:-0.09em;}.cls-15{letter-spacing:-0.02em;}.cls-16{letter-spacing:-0.02em;}.cls-17{letter-spacing:0em;}.cls-18{letter-spacing:-0.06em;}.cls-19{letter-spacing:0em;}.cls-20{letter-spacing:-0.02em;}.cls-21{letter-spacing:-0.03em;}.cls-22{letter-spacing:-0.05em;}.cls-23{letter-spacing:0em;}.cls-24{letter-spacing:-0.03em;}.cls-25{letter-spacing:-0.06em;}.cls-26{letter-spacing:-0.05em;}.cls-27{letter-spacing:-0.05em;}.cls-28{letter-spacing:-0.02em;}.cls-29{letter-spacing:-0.07em;}.cls-30{letter-spacing:0em;}.cls-31{letter-spacing:-0.04em;}.cls-32{letter-spacing:-0.01em;}.cls-33{letter-spacing:0.02em;}.cls-34{letter-spacing:-0.01em;}.cls-35{letter-spacing:0em;}.cls-36{letter-spacing:0em;}</style></defs><title>10</title><rect class="cls-1" width="6496" height="2136"/><circle class="cls-2" cx="6254.84" cy="1888.63" r="19.87"/><circle class="cls-2" cx="6048.17" cy="1888.63" r="19.87"/><circle class="cls-2" cx="5837.52" cy="1888.63" r="19.87"/><circle class="cls-2" cx="5626.88" cy="1888.63" r="19.87"/><circle class="cls-2" cx="5432.14" cy="1888.63" r="19.87"/><circle class="cls-2" cx="5229.44" cy="1888.63" r="19.87"/><circle class="cls-2" cx="5014.83" cy="1888.63" r="19.87"/><circle class="cls-2" cx="4808.16" cy="1888.63" r="19.87"/><circle class="cls-2" cx="6254.84" cy="1717.73" r="19.87"/><circle class="cls-2" cx="6048.17" cy="1717.73" r="19.87"/><circle class="cls-2" cx="5837.52" cy="1717.73" r="19.87"/><circle class="cls-2" cx="5626.88" cy="1717.73" r="19.87"/><circle class="cls-2" cx="5432.14" cy="1717.73" r="19.87"/><circle class="cls-2" cx="5229.44" cy="1717.73" r="19.87"/><circle class="cls-2" cx="5014.83" cy="1717.73" r="19.87"/><circle class="cls-2" cx="6254.84" cy="1515.04" r="19.87"/><circle class="cls-2" cx="6048.17" cy="1515.04" r="19.87"/><circle class="cls-2" cx="5837.52" cy="1515.04" r="19.87"/><circle class="cls-2" cx="5626.88" cy="1515.04" r="19.87"/><circle class="cls-2" cx="5432.14" cy="1515.04" r="19.87"/><circle class="cls-2" cx="5229.44" cy="1515.04" r="19.87"/><circle class="cls-2" cx="6254.84" cy="1312.34" r="19.87"/><circle class="cls-2" cx="6048.17" cy="1312.34" r="19.87"/><circle class="cls-2" cx="5837.52" cy="1312.34" r="19.87"/><circle class="cls-2" cx="5626.88" cy="1312.34" r="19.87"/><circle class="cls-2" cx="5432.14" cy="1312.34" r="19.87"/><circle class="cls-2" cx="6254.84" cy="1109.65" r="19.87"/><circle class="cls-2" cx="6048.17" cy="1109.65" r="19.87"/><circle class="cls-2" cx="5837.52" cy="1109.65" r="19.87"/><circle class="cls-2" cx="5626.88" cy="1109.65" r="19.87"/><circle class="cls-2" cx="6254.84" cy="906.95" r="19.87"/><circle class="cls-2" cx="6048.17" cy="906.95" r="19.87"/><circle class="cls-2" cx="5837.52" cy="906.95" r="19.87"/><circle class="cls-2" cx="6254.84" cy="704.26" r="19.87"/><circle class="cls-2" cx="6048.17" cy="704.26" r="19.87"/><circle class="cls-2" cx="6254.84" cy="501.57" r="19.87"/><circle class="cls-2" cx="6254.84" cy="298.87" r="19.87"/><circle class="cls-2" cx="6048.17" cy="501.57" r="19.87"/><circle class="cls-2" cx="5837.52" cy="704.26" r="19.87"/><circle class="cls-2" cx="5626.88" cy="906.95" r="19.87"/><circle class="cls-2" cx="5432.14" cy="1109.65" r="19.87"/><circle class="cls-2" cx="5229.44" cy="1312.34" r="19.87"/><circle class="cls-2" cx="5014.83" cy="1515.04" r="19.87"/><circle class="cls-2" cx="4808.16" cy="1717.73" r="19.87"/><circle class="cls-2" cx="4633.28" cy="1888.63" r="19.87"/><circle class="cls-2" cx="242.61" cy="279.21" r="20.21"/><circle class="cls-2" cx="452.83" cy="279.21" r="20.21"/><circle class="cls-2" cx="667.09" cy="279.21" r="20.21"/><circle class="cls-2" cx="881.36" cy="279.21" r="20.21"/><circle class="cls-2" cx="1079.45" cy="279.21" r="20.21"/><circle class="cls-2" cx="1285.62" cy="279.21" r="20.21"/><circle class="cls-2" cx="1503.93" cy="279.21" r="20.21"/><circle class="cls-2" cx="1714.15" cy="279.21" r="20.21"/><circle class="cls-2" cx="242.61" cy="453.05" r="20.21"/><circle class="cls-2" cx="452.83" cy="453.05" r="20.21"/><circle class="cls-2" cx="667.09" cy="453.05" r="20.21"/><circle class="cls-2" cx="881.36" cy="453.05" r="20.21"/><circle class="cls-2" cx="1079.45" cy="453.05" r="20.21"/><circle class="cls-2" cx="1285.62" cy="453.05" r="20.21"/><circle class="cls-2" cx="1503.93" cy="453.05" r="20.21"/><circle class="cls-2" cx="242.61" cy="659.23" r="20.21"/><circle class="cls-2" cx="452.83" cy="659.23" r="20.21"/><circle class="cls-2" cx="667.09" cy="659.23" r="20.21"/><circle class="cls-2" cx="881.36" cy="659.23" r="20.21"/><circle class="cls-2" cx="1079.45" cy="659.23" r="20.21"/><circle class="cls-2" cx="1285.62" cy="659.23" r="20.21"/><circle class="cls-2" cx="242.61" cy="865.4" r="20.21"/><circle class="cls-2" cx="452.83" cy="865.4" r="20.21"/><circle class="cls-2" cx="667.09" cy="865.4" r="20.21"/><circle class="cls-2" cx="881.36" cy="865.4" r="20.21"/><circle class="cls-2" cx="1079.45" cy="865.4" r="20.21"/><circle class="cls-2" cx="242.61" cy="1071.58" r="20.21"/><circle class="cls-2" cx="452.83" cy="1071.58" r="20.21"/><circle class="cls-2" cx="667.09" cy="1071.58" r="20.21"/><circle class="cls-2" cx="881.36" cy="1071.58" r="20.21"/><circle class="cls-2" cx="242.61" cy="1277.76" r="20.21"/><circle class="cls-2" cx="452.83" cy="1277.76" r="20.21"/><circle class="cls-2" cx="667.09" cy="1277.76" r="20.21"/><circle class="cls-2" cx="242.61" cy="1483.93" r="20.21"/><circle class="cls-2" cx="452.83" cy="1483.93" r="20.21"/><circle class="cls-2" cx="242.61" cy="1690.11" r="20.21"/><circle class="cls-2" cx="242.61" cy="1896.29" r="20.21"/><circle class="cls-2" cx="452.83" cy="1690.11" r="20.21"/><circle class="cls-2" cx="667.09" cy="1483.93" r="20.21"/><circle class="cls-2" cx="881.36" cy="1277.76" r="20.21"/><circle class="cls-2" cx="1079.45" cy="1071.58" r="20.21"/><circle class="cls-2" cx="1285.62" cy="865.4" r="20.21"/><circle class="cls-2" cx="1503.93" cy="659.23" r="20.21"/><circle class="cls-2" cx="1714.15" cy="453.05" r="20.21"/><circle class="cls-2" cx="1892.03" cy="279.21" r="20.21"/><text class="cls-3" transform="translate(1992.13 759.35)"><tspan class="cls-4">N</tspan><tspan class="cls-5" x="83.38" y="0">O</tspan><tspan x="181.1" y="0">S EN</tspan><tspan class="cls-6" x="450.66" y="0">C</tspan><tspan class="cls-7" x="537.51" y="0">O</tspan><tspan class="cls-8" x="632.8" y="0">N</tspan><tspan class="cls-9" x="720.8" y="0">TRA</tspan><tspan class="cls-10" x="942.72" y="0">M</tspan><tspan class="cls-5" x="1035.12" y="0">O</tspan><tspan class="cls-9" x="1132.84" y="0">S EN ARGE</tspan><tspan class="cls-11" x="1746.78" y="0">N</tspan><tspan x="1834.78" y="0">TINA, P</tspan><tspan class="cls-12" x="2237.56" y="0">E</tspan><tspan class="cls-13" x="2308.45" y="0">R</tspan><tspan x="2378.76" y="0">O </tspan><tspan class="cls-14" x="-12.61" y="138.77">T</tspan><tspan x="51.34" y="138.77">AM</tspan><tspan class="cls-11" x="223.65" y="138.77">B</tspan><tspan x="291.19" y="138.77">IEN TRA</tspan><tspan class="cls-15" x="740.8" y="138.77">B</tspan><tspan x="807.18" y="138.77">A</tspan><tspan class="cls-16" x="881.89" y="138.77">J</tspan><tspan x="947.69" y="138.77">A</tspan><tspan class="cls-10" x="1022.39" y="138.77">M</tspan><tspan class="cls-5" x="1114.79" y="138.77">O</tspan><tspan x="1212.51" y="138.77">S </tspan><tspan class="cls-7" x="1324.33" y="138.77">O</tspan><tspan class="cls-9" x="1419.63" y="138.77">N</tspan><tspan class="cls-17" x="1508.79" y="138.77">L</tspan><tspan x="1574.47" y="138.77">I</tspan><tspan class="cls-18" x="1609.74" y="138.77">N</tspan><tspan class="cls-19" x="1691.38" y="138.77">E </tspan><tspan class="cls-20" x="1794.65" y="138.77">C</tspan><tspan class="cls-21" x="1881.5" y="138.77">O</tspan><tspan x="1976.79" y="138.77">N </tspan><tspan class="cls-22" x="2100.64" y="138.77">O</tspan><tspan x="2192.58" y="138.77">TR</tspan><tspan class="cls-13" x="2339.79" y="138.77">A</tspan><tspan class="cls-23" x="2412.53" y="138.77">S </tspan><tspan x="459.27" y="277.54">CI</tspan><tspan class="cls-24" x="583.7" y="277.54">U</tspan><tspan class="cls-25" x="674.37" y="277.54">D</tspan><tspan class="cls-9" x="750" y="277.54">A</tspan><tspan class="cls-26" x="824.7" y="277.54">D</tspan><tspan class="cls-9" x="902.07" y="277.54">ES Y </tspan><tspan class="cls-27" x="1187.01" y="277.54">O</tspan><tspan x="1278.94" y="277.54">T</tspan><tspan class="cls-28" x="1353.88" y="277.54">R</tspan><tspan class="cls-5" x="1424.19" y="277.54">O</tspan><tspan class="cls-9" x="1521.91" y="277.54">S </tspan><tspan class="cls-29" x="1633.74" y="277.54">P</tspan><tspan x="1693.06" y="277.54">AISES.</tspan><tspan class="cls-15" x="-11.68" y="555.09">C</tspan><tspan class="cls-30" x="75.17" y="555.09">O</tspan><tspan x="172.88" y="555.09">LABOR</tspan><tspan class="cls-31" x="551.96" y="555.09">A</tspan><tspan x="622.04" y="555.09">CI</tspan><tspan class="cls-21" x="746.47" y="555.09">O</tspan><tspan x="841.76" y="555.09">N </tspan><tspan class="cls-15" x="965.61" y="555.09">C</tspan><tspan class="cls-21" x="1052.46" y="555.09">O</tspan><tspan class="cls-32" x="1147.75" y="555.09">N</tspan><tspan class="cls-9" x="1235.76" y="555.09">TI</tspan><tspan class="cls-4" x="1345.96" y="555.09">NU</tspan><tspan x="1517.69" y="555.09">A Y P</tspan><tspan class="cls-33" x="1799.05" y="555.09">E</tspan><tspan x="1869.94" y="555.09">R</tspan><tspan class="cls-25" x="1942.21" y="555.09">M</tspan><tspan x="2032.3" y="555.09">A</tspan><tspan class="cls-18" x="2107" y="555.09">N</tspan><tspan class="cls-19" x="2188.65" y="555.09">E</tspan><tspan class="cls-34" x="2257.22" y="555.09">N</tspan><tspan x="2345.23" y="555.09">TE </tspan><tspan class="cls-15" x="914.79" y="693.86">C</tspan><tspan class="cls-7" x="1001.64" y="693.86">O</tspan><tspan x="1096.93" y="693.86">N I</tspan><tspan class="cls-14" x="1256.05" y="693.86">T</tspan><tspan x="1320" y="693.86">A</tspan><tspan class="cls-35" x="1394.71" y="693.86">L</tspan><tspan class="cls-36" x="1460.39" y="693.86">IA.</tspan></text></svg>