<svg width="286" height="278" viewBox="0 0 286 278" fill="none" xmlns="http://www.w3.org/2000/svg">
<ellipse cx="6.49522" cy="3.03115" rx="3.03111" ry="3.03115" fill="#1D763D"/>
<ellipse cx="3.03111" cy="32.4766" rx="3.03111" ry="3.03115" fill="#1D763D"/>
<ellipse cx="4.76316" cy="67.1183" rx="3.03111" ry="3.03115" fill="#1D763D"/>
<ellipse cx="3.03111" cy="101.76" rx="3.03111" ry="3.03115" fill="#1D763D"/>
<ellipse cx="3.03111" cy="136.402" rx="3.03111" ry="3.03115" fill="#1D763D"/>
<ellipse cx="3.03111" cy="171.044" rx="3.03111" ry="3.03115" fill="#1D763D"/>
<ellipse cx="3.03111" cy="205.685" rx="3.03111" ry="3.03115" fill="#1D763D"/>
<ellipse cx="3.03111" cy="240.327" rx="3.03111" ry="3.03115" fill="#1D763D"/>
<ellipse cx="3.03111" cy="274.969" rx="3.03111" ry="3.03115" fill="#1D763D"/>
<ellipse cx="145.926" cy="3.03115" rx="3.03111" ry="3.03115" fill="#1D763D"/>
<ellipse cx="142.462" cy="32.4767" rx="3.03111" ry="3.03115" fill="#1D763D"/>
<ellipse cx="144.194" cy="67.1183" rx="3.03111" ry="3.03115" fill="#1D763D"/>
<ellipse cx="142.462" cy="101.76" rx="3.03111" ry="3.03115" fill="#1D763D"/>
<ellipse cx="142.462" cy="136.402" rx="3.03111" ry="3.03115" fill="#1D763D"/>
<ellipse cx="77.5097" cy="3.03115" rx="3.03111" ry="3.03115" fill="#1D763D"/>
<ellipse cx="74.0456" cy="32.4767" rx="3.03111" ry="3.03115" fill="#1D763D"/>
<ellipse cx="75.7777" cy="67.1183" rx="3.03111" ry="3.03115" fill="#1D763D"/>
<ellipse cx="74.0456" cy="101.76" rx="3.03111" ry="3.03115" fill="#1D763D"/>
<ellipse cx="74.0456" cy="136.402" rx="3.03111" ry="3.03115" fill="#1D763D"/>
<ellipse cx="74.0456" cy="171.044" rx="3.03111" ry="3.03115" fill="#1D763D"/>
<ellipse cx="74.0456" cy="205.685" rx="3.03111" ry="3.03115" fill="#1D763D"/>
<ellipse cx="216.941" cy="3.03115" rx="3.03111" ry="3.03115" fill="#1D763D"/>
<ellipse cx="213.476" cy="32.4767" rx="3.03111" ry="3.03115" fill="#1D763D"/>
<ellipse cx="215.209" cy="67.1183" rx="3.03111" ry="3.03115" fill="#1D763D"/>
<ellipse cx="42.0025" cy="3.03115" rx="3.03111" ry="3.03115" fill="#1D763D"/>
<ellipse cx="38.5383" cy="32.4767" rx="3.03111" ry="3.03115" fill="#1D763D"/>
<ellipse cx="40.2704" cy="67.1183" rx="3.03111" ry="3.03115" fill="#1D763D"/>
<ellipse cx="38.5383" cy="101.76" rx="3.03111" ry="3.03115" fill="#1D763D"/>
<ellipse cx="38.5383" cy="136.402" rx="3.03111" ry="3.03115" fill="#1D763D"/>
<ellipse cx="38.5383" cy="171.044" rx="3.03111" ry="3.03115" fill="#1D763D"/>
<ellipse cx="38.5383" cy="205.685" rx="3.03111" ry="3.03115" fill="#1D763D"/>
<ellipse cx="38.5383" cy="240.327" rx="3.03111" ry="3.03115" fill="#1D763D"/>
<ellipse cx="181.433" cy="3.03115" rx="3.03111" ry="3.03115" fill="#1D763D"/>
<ellipse cx="177.969" cy="32.4767" rx="3.03111" ry="3.03115" fill="#1D763D"/>
<ellipse cx="179.701" cy="67.1183" rx="3.03111" ry="3.03115" fill="#1D763D"/>
<ellipse cx="177.969" cy="101.76" rx="3.03111" ry="3.03115" fill="#1D763D"/>
<ellipse cx="113.017" cy="3.03115" rx="3.03111" ry="3.03115" fill="#1D763D"/>
<ellipse cx="109.553" cy="32.4767" rx="3.03111" ry="3.03115" fill="#1D763D"/>
<ellipse cx="111.285" cy="67.1183" rx="3.03111" ry="3.03115" fill="#1D763D"/>
<ellipse cx="109.553" cy="101.76" rx="3.03111" ry="3.03115" fill="#1D763D"/>
<ellipse cx="109.553" cy="136.402" rx="3.03111" ry="3.03115" fill="#1D763D"/>
<ellipse cx="109.553" cy="171.044" rx="3.03111" ry="3.03115" fill="#1D763D"/>
<ellipse cx="252.448" cy="3.03115" rx="3.03111" ry="3.03115" fill="#1D763D"/>
<ellipse cx="248.984" cy="32.4767" rx="3.03111" ry="3.03115" fill="#1D763D"/>
<ellipse cx="282.759" cy="3.03115" rx="3.03111" ry="3.03115" fill="#1D763D"/>
</svg>
