<svg width="286" height="278" viewBox="0 0 286 278" fill="none" xmlns="http://www.w3.org/2000/svg">
<ellipse cx="279.295" cy="274.969" rx="3.03111" ry="3.03115" transform="rotate(-180 279.295 274.969)" fill="#1D763D"/>
<ellipse cx="282.759" cy="245.523" rx="3.03111" ry="3.03115" transform="rotate(-180 282.759 245.523)" fill="#1D763D"/>
<ellipse cx="281.027" cy="210.882" rx="3.03111" ry="3.03115" transform="rotate(-180 281.027 210.882)" fill="#1D763D"/>
<ellipse cx="282.759" cy="176.24" rx="3.03111" ry="3.03115" transform="rotate(-180 282.759 176.24)" fill="#1D763D"/>
<ellipse cx="282.759" cy="141.598" rx="3.03111" ry="3.03115" transform="rotate(-180 282.759 141.598)" fill="#1D763D"/>
<ellipse cx="282.759" cy="106.956" rx="3.03111" ry="3.03115" transform="rotate(-180 282.759 106.956)" fill="#1D763D"/>
<ellipse cx="282.759" cy="72.3147" rx="3.03111" ry="3.03115" transform="rotate(-180 282.759 72.3147)" fill="#1D763D"/>
<ellipse cx="282.759" cy="37.6729" rx="3.03111" ry="3.03115" transform="rotate(-180 282.759 37.6729)" fill="#1D763D"/>
<ellipse cx="282.759" cy="3.0311" rx="3.03111" ry="3.03115" transform="rotate(-180 282.759 3.0311)" fill="#1D763D"/>
<ellipse cx="139.864" cy="274.969" rx="3.03111" ry="3.03115" transform="rotate(-180 139.864 274.969)" fill="#1D763D"/>
<ellipse cx="143.328" cy="245.523" rx="3.03111" ry="3.03115" transform="rotate(-180 143.328 245.523)" fill="#1D763D"/>
<ellipse cx="141.596" cy="210.882" rx="3.03111" ry="3.03115" transform="rotate(-180 141.596 210.882)" fill="#1D763D"/>
<ellipse cx="143.328" cy="176.24" rx="3.03111" ry="3.03115" transform="rotate(-180 143.328 176.24)" fill="#1D763D"/>
<ellipse cx="143.328" cy="141.598" rx="3.03111" ry="3.03115" transform="rotate(-180 143.328 141.598)" fill="#1D763D"/>
<ellipse cx="208.28" cy="274.969" rx="3.03111" ry="3.03115" transform="rotate(-180 208.28 274.969)" fill="#1D763D"/>
<ellipse cx="211.744" cy="245.523" rx="3.03111" ry="3.03115" transform="rotate(-180 211.744 245.523)" fill="#1D763D"/>
<ellipse cx="210.012" cy="210.882" rx="3.03111" ry="3.03115" transform="rotate(-180 210.012 210.882)" fill="#1D763D"/>
<ellipse cx="211.744" cy="176.24" rx="3.03111" ry="3.03115" transform="rotate(-180 211.744 176.24)" fill="#1D763D"/>
<ellipse cx="211.744" cy="141.598" rx="3.03111" ry="3.03115" transform="rotate(-180 211.744 141.598)" fill="#1D763D"/>
<ellipse cx="211.744" cy="106.956" rx="3.03111" ry="3.03115" transform="rotate(-180 211.744 106.956)" fill="#1D763D"/>
<ellipse cx="211.744" cy="72.3146" rx="3.03111" ry="3.03115" transform="rotate(-180 211.744 72.3146)" fill="#1D763D"/>
<ellipse cx="68.8495" cy="274.969" rx="3.03111" ry="3.03115" transform="rotate(-180 68.8495 274.969)" fill="#1D763D"/>
<ellipse cx="72.3136" cy="245.523" rx="3.03111" ry="3.03115" transform="rotate(-180 72.3136 245.523)" fill="#1D763D"/>
<ellipse cx="70.5816" cy="210.882" rx="3.03111" ry="3.03115" transform="rotate(-180 70.5816 210.882)" fill="#1D763D"/>
<ellipse cx="243.788" cy="274.969" rx="3.03111" ry="3.03115" transform="rotate(-180 243.788 274.969)" fill="#1D763D"/>
<ellipse cx="247.252" cy="245.523" rx="3.03111" ry="3.03115" transform="rotate(-180 247.252 245.523)" fill="#1D763D"/>
<ellipse cx="245.52" cy="210.882" rx="3.03111" ry="3.03115" transform="rotate(-180 245.52 210.882)" fill="#1D763D"/>
<ellipse cx="247.252" cy="176.24" rx="3.03111" ry="3.03115" transform="rotate(-180 247.252 176.24)" fill="#1D763D"/>
<ellipse cx="247.252" cy="141.598" rx="3.03111" ry="3.03115" transform="rotate(-180 247.252 141.598)" fill="#1D763D"/>
<ellipse cx="247.252" cy="106.956" rx="3.03111" ry="3.03115" transform="rotate(-180 247.252 106.956)" fill="#1D763D"/>
<ellipse cx="247.252" cy="72.3146" rx="3.03111" ry="3.03115" transform="rotate(-180 247.252 72.3146)" fill="#1D763D"/>
<ellipse cx="247.252" cy="37.6729" rx="3.03111" ry="3.03115" transform="rotate(-180 247.252 37.6729)" fill="#1D763D"/>
<ellipse cx="104.357" cy="274.969" rx="3.03111" ry="3.03115" transform="rotate(-180 104.357 274.969)" fill="#1D763D"/>
<ellipse cx="107.821" cy="245.523" rx="3.03111" ry="3.03115" transform="rotate(-180 107.821 245.523)" fill="#1D763D"/>
<ellipse cx="106.089" cy="210.882" rx="3.03111" ry="3.03115" transform="rotate(-180 106.089 210.882)" fill="#1D763D"/>
<ellipse cx="107.821" cy="176.24" rx="3.03111" ry="3.03115" transform="rotate(-180 107.821 176.24)" fill="#1D763D"/>
<ellipse cx="172.773" cy="274.969" rx="3.03111" ry="3.03115" transform="rotate(-180 172.773 274.969)" fill="#1D763D"/>
<ellipse cx="176.237" cy="245.523" rx="3.03111" ry="3.03115" transform="rotate(-180 176.237 245.523)" fill="#1D763D"/>
<ellipse cx="174.505" cy="210.882" rx="3.03111" ry="3.03115" transform="rotate(-180 174.505 210.882)" fill="#1D763D"/>
<ellipse cx="176.237" cy="176.24" rx="3.03111" ry="3.03115" transform="rotate(-180 176.237 176.24)" fill="#1D763D"/>
<ellipse cx="176.237" cy="141.598" rx="3.03111" ry="3.03115" transform="rotate(-180 176.237 141.598)" fill="#1D763D"/>
<ellipse cx="176.237" cy="106.956" rx="3.03111" ry="3.03115" transform="rotate(-180 176.237 106.956)" fill="#1D763D"/>
<ellipse cx="33.3422" cy="274.969" rx="3.03111" ry="3.03115" transform="rotate(-180 33.3422 274.969)" fill="#1D763D"/>
<ellipse cx="36.8063" cy="245.523" rx="3.03111" ry="3.03115" transform="rotate(-180 36.8063 245.523)" fill="#1D763D"/>
<ellipse cx="3.03115" cy="274.969" rx="3.03111" ry="3.03115" transform="rotate(-180 3.03115 274.969)" fill="#1D763D"/>
</svg>
